<svg width="80" height="94" viewBox="0 0 80 94" fill="none" xmlns="http://www.w3.org/2000/svg">
<path fill-rule="evenodd" clip-rule="evenodd" d="M13.6863 63.0313L11.5885 63.2633V76.6067H13.6863V63.0313ZM9.64196 76.6067H7.50378V75.6183C7.11044 76.1327 6.05144 76.7277 4.78063 76.7277C2.05749 76.7277 0 74.7106 0 71.8462C0 68.992 2.05749 66.9748 4.78063 66.9748C6.04135 66.9748 7.11044 67.5598 7.50378 68.0742V67.0858H9.64196V76.6067ZM4.86132 68.9819C3.27786 68.9819 2.05749 70.2829 2.05749 71.8361C2.05749 73.3994 3.27786 74.7005 4.86132 74.7005C6.40444 74.7005 7.58447 73.3994 7.58447 71.8361C7.58447 70.2829 6.40444 68.9819 4.86132 68.9819ZM15.4412 67.0757H23.4191V68.8609L17.9022 74.6198H23.7721V76.5966H15.0983V74.8114L20.6253 69.0525H15.4412V67.0757ZM27.3323 63.0313L25.2345 63.2633H25.2446V76.6067H27.3424V71.342C27.3424 69.9501 28.1896 68.9415 29.5512 68.9415C30.9934 68.9415 31.6188 69.8593 31.6188 71.342V76.6067H33.7166V70.8881C33.7166 68.3566 32.3248 66.9647 30.0555 66.9647C28.8149 66.9647 27.8971 67.469 27.3323 68.1549V63.0313ZM37.1577 72.5724C37.3838 73.768 38.4708 74.7408 39.8487 74.7408C40.8169 74.7408 41.6036 74.4383 41.997 73.823H44.4982C43.8427 75.5578 41.997 76.7277 39.8487 76.7277C37.0751 76.7277 34.947 74.5492 34.947 71.8462C34.947 69.1433 37.0751 66.9748 39.7882 66.9748C42.4912 66.9748 44.6193 69.1433 44.6193 71.8462C44.6193 72.0984 44.6092 72.3404 44.5688 72.5724H37.1577ZM42.3197 70.6965H37.2466C37.5492 69.7081 38.5779 68.9113 39.7882 68.9113C40.9884 68.9113 42.0171 69.7081 42.3197 70.6965ZM47.0701 63.1523C47.8568 63.1523 48.4821 63.7777 48.4821 64.5744C48.4821 65.3813 47.8568 66.0066 47.0701 66.0066C46.2935 66.0066 45.6581 65.3712 45.6581 64.5744C45.6581 63.7777 46.2834 63.1523 47.0701 63.1523ZM46.0212 67.0757H48.119V76.6067H46.0212V67.0757ZM50.0454 67.0757H52.1331V68.1549C52.6475 67.4489 53.5653 66.9647 54.6142 66.9647C55.7842 66.9647 56.591 67.4388 57.1155 68.2759C57.8416 67.5195 58.6183 66.9647 60 66.9647C61.9365 66.9647 63.1266 68.0137 63.1266 70.3536V76.6067H61.0287V70.8881C61.0287 69.6476 60.4539 68.9416 59.3242 68.9416C58.356 68.9416 57.6298 69.6476 57.6298 70.8881V76.6067H55.532V70.8881C55.532 69.6476 54.947 68.9416 53.8376 68.9416C52.8694 68.9416 52.1432 69.6476 52.1432 70.8881V76.6067H50.0454V67.0757ZM69.2486 74.7408C67.8707 74.7408 66.7837 73.768 66.5576 72.5724H73.9788C74.0091 72.3404 74.0292 72.0984 74.0292 71.8462C74.0292 69.1433 71.9012 66.9748 69.1881 66.9748C66.4851 66.9748 64.3469 69.1433 64.3469 71.8462C64.3469 74.5492 66.4851 76.7277 69.2486 76.7277C71.407 76.7277 73.2526 75.5578 73.8981 73.823H71.407C71.0035 74.4383 70.2168 74.7408 69.2486 74.7408ZM66.6566 70.6965H71.7297C71.4271 69.7081 70.3984 68.9113 69.1982 68.9113C67.9879 68.9113 66.9591 69.7081 66.6566 70.6965ZM75.4412 67.0757H77.5391V68.0641C78.003 67.4589 78.6687 66.9647 80 66.9647V68.9819H79.8084C78.4771 68.9819 77.5391 69.94 77.5391 71.342V76.6067H75.4412V67.0757ZM27.413 92.522V93.4801V93.4902H29.4302V80.3687L27.413 80.5906V85.23C26.8381 84.6047 25.8396 84.1609 24.6999 84.1609C21.9566 84.1609 20.1311 86.0066 20.1311 88.881C20.1311 91.7454 21.9566 93.5911 24.6999 93.5911C25.9203 93.5911 26.828 93.0969 27.413 92.522ZM22.1281 88.881C22.1281 87.2875 23.1972 86.1175 24.8008 86.1175C26.4044 86.1175 27.4534 87.2875 27.4534 88.881C27.4534 90.4645 26.4044 91.6445 24.8008 91.6445C23.1972 91.6445 22.1281 90.4645 22.1281 88.881ZM2.57186 84.2718H0.54463V93.4902H2.57186V88.407C2.57186 87.0555 3.27786 86.0873 4.59909 86.0873C5.92032 86.0873 6.60615 86.7832 6.60615 88.407V93.4902H8.63338V87.9632C8.63338 85.5023 7.38275 84.1609 5.09329 84.1609C3.83258 84.1609 2.99546 84.766 2.57186 85.3208V84.2718ZM14.6041 91.6849C13.2767 91.6849 12.23 90.7423 12.004 89.587H19.1831C19.2133 89.3752 19.2335 89.1332 19.2335 88.8911C19.2335 86.2688 17.1659 84.171 14.5537 84.171C11.9314 84.171 9.87393 86.2789 9.87393 88.8911C9.87393 91.5033 11.9314 93.6012 14.6041 93.6012C16.6818 93.6012 18.4771 92.4715 19.1024 90.7973H16.6818C16.2985 91.3823 15.5421 91.6849 14.6041 91.6849ZM16.9945 87.7716C16.702 86.8135 15.7035 86.0369 14.5436 86.0369C13.3838 86.0369 12.3853 86.8135 12.0928 87.7716H16.9945ZM35.3505 91.6849C34.023 91.6849 32.9763 90.7423 32.7503 89.587H39.9294C39.9597 89.3752 39.9798 89.1332 39.9798 88.8911C39.9798 86.2688 37.9223 84.171 35.3 84.171C32.6778 84.171 30.6203 86.2789 30.6203 88.8911C30.6203 91.5033 32.6778 93.6012 35.3505 93.6012C37.4281 93.6012 39.2133 92.4715 39.8386 90.7973H37.4281C37.0449 91.3823 36.2885 91.6849 35.3505 91.6849ZM37.7509 87.7716C37.4584 86.8135 36.4599 86.0369 35.3001 86.0369C34.1301 86.0369 33.1417 86.8135 32.8492 87.7716H37.7509ZM41.3414 84.2718H43.3686V85.23C43.8124 84.645 44.4579 84.1609 45.7388 84.1609V86.1175H45.5572C44.2763 86.1175 43.3686 87.0454 43.3686 88.3969V93.4801H41.3414V84.2718ZM49.1276 80.3687L47.1004 80.5906V93.4902H49.1276V80.3687ZM59.5663 93.4801V84.2718H57.5088V85.23C57.1256 84.7257 56.0867 84.1609 54.8765 84.1609C52.234 84.1609 50.2471 86.1175 50.2471 88.881C50.2471 91.6445 52.234 93.5911 54.8765 93.5911C56.1069 93.5911 57.1256 93.0162 57.5088 92.522V93.4801H59.5663ZM52.234 88.881C52.234 87.3682 53.414 86.1175 54.9471 86.1175C56.4297 86.1175 57.5794 87.3682 57.5794 88.881C57.5794 90.3838 56.4397 91.6445 54.9471 91.6445C53.414 91.6445 52.234 90.3939 52.234 88.881ZM63.3787 84.2718H61.3515V93.4902H63.3787V88.407C63.3787 87.0555 64.0847 86.0873 65.4059 86.0873C66.7373 86.0873 67.413 86.7832 67.413 88.407V93.4902H69.4402V87.9632C69.4402 85.5023 68.1896 84.1609 65.9001 84.1609C64.6293 84.1609 63.8023 84.766 63.3787 85.3208V84.2718ZM77.9526 92.522V93.4801V93.4902H79.9697V80.3687L77.9526 80.5906V85.23C77.3878 84.6047 76.3893 84.1609 75.2496 84.1609C72.5063 84.1609 70.6808 86.0066 70.6808 88.881C70.6808 91.7454 72.4962 93.5911 75.2496 93.5911C76.4599 93.5911 77.3575 93.0969 77.9526 92.522ZM72.6576 88.881C72.6576 87.2875 73.7267 86.1175 75.3303 86.1175C76.9339 86.1175 77.9828 87.2875 77.9828 88.881C77.9828 90.4645 76.9339 91.6445 75.3303 91.6445C73.7267 91.6445 72.6576 90.4645 72.6576 88.881Z" fill="black"/>
<path fill-rule="evenodd" clip-rule="evenodd" d="M54.2713 6.31916V1.00398H64.3671V52.0781H54.2713V46.7629C52.1231 49.5163 46.5053 52.6833 39.6672 52.6833C25.063 52.6833 14.0393 41.8613 14.0393 26.541C14.0393 11.2208 25.063 0.398834 39.6672 0.398834C46.4145 0.398834 52.1231 3.56575 54.2713 6.31916ZM21.533 26.5007C21.533 36.7075 29.4402 44.9778 39.1931 44.9778C48.946 44.9778 56.8533 36.7075 56.8533 26.5007C56.8533 16.2939 48.946 8.02365 39.1931 8.02365C29.4402 8.02365 21.533 16.2939 21.533 26.5007Z" fill="black"/>
</svg>
