<?xml version="1.0" encoding="UTF-8"?>
<svg id="Layer_1" data-name="Layer 1" xmlns="http://www.w3.org/2000/svg" viewBox="0 0 200 200">
  <defs>
    <style>
      .cls-1 {
        fill-rule: evenodd;
      }

      .cls-1, .cls-2, .cls-3, .cls-4 {
        stroke-width: 0px;
      }

      .cls-1, .cls-3 {
        fill: #2e2758;
      }

      .cls-2 {
        fill: #2e2458;
      }

      .cls-4 {
        fill: #dd8056;
      }
    </style>
  </defs>
  <g id="Layer_1-2" data-name="Layer 1-2">
    <path class="cls-2" d="M33.36,77.03V27.53h29.94v7.41h-21.14v14.03h17.98v7.41h-17.98v20.65h-8.79Z"/>
    <g>
      <path class="cls-2" d="M30,106.08c0-11.95,7.01-19.27,16.5-19.27,4.54,0,8,2.17,10.28,4.54l-2.57,2.96c-1.98-2.07-4.45-3.36-7.61-3.36-7.01.1-11.66,5.83-11.66,15.02s4.45,15.12,11.46,15.12c3.56,0,6.22-1.38,8.6-4.05l2.57,2.87c-2.96,3.46-6.62,5.34-11.36,5.34-9.29.1-16.2-7.01-16.2-19.17h0Z"/>
      <path class="cls-2" d="M62.6,105.88c0-11.86,6.52-19.07,15.81-19.07s15.91,7.21,15.91,19.07-6.52,19.46-15.91,19.46-15.81-7.51-15.81-19.46ZM89.38,105.88c0-9.19-4.35-14.92-10.97-14.92s-10.87,5.73-10.87,14.92,4.25,15.22,10.87,15.22,10.97-5.93,10.97-15.22Z"/>
      <path class="cls-2" d="M101.24,105.88c0-11.86,6.52-19.07,15.81-19.07s15.91,7.21,15.91,19.07-6.62,19.46-15.91,19.46-15.81-7.51-15.81-19.46ZM128.01,105.88c0-9.19-4.35-14.92-10.97-14.92s-10.97,5.73-10.97,14.92,4.25,15.22,10.97,15.22,10.97-5.93,10.97-15.22Z"/>
      <path class="cls-2" d="M141.94,87.5h4.74v18.57h.2l15.31-18.57h5.43l-11.66,14.13,13.34,23.02h-5.34l-11.07-19.27-6.32,7.51v11.66h-4.74l.1-37.05h0Z"/>
    </g>
    <g>
      <path class="cls-2" d="M33.36,134.73h11.07c7.51,0,12.75,2.57,12.75,9.09,0,3.66-1.98,6.92-5.43,8.1v.2c4.45.89,7.51,3.75,7.51,8.89,0,7.31-5.73,10.87-14.03,10.87h-11.86c0-.1,0-37.15,0-37.15ZM43.63,150.54c6.32,0,8.89-2.37,8.89-6.13,0-4.25-2.96-5.83-8.69-5.83h-5.63v11.95h5.43ZM44.62,168.02c6.32,0,9.98-2.27,9.98-7.21,0-4.54-3.56-6.72-9.98-6.72h-6.52v13.93h6.52Z"/>
      <path class="cls-2" d="M64.78,153.11c0-11.86,6.52-19.07,15.81-19.07s15.91,7.21,15.91,19.07-6.52,19.36-15.91,19.36-15.81-7.41-15.81-19.36ZM91.55,153.11c0-9.19-4.35-14.92-10.97-14.92s-10.87,5.63-10.87,14.92,4.25,15.22,10.87,15.22,10.97-5.93,10.97-15.22Z"/>
      <path class="cls-2" d="M102.62,153.11c0-11.86,6.52-19.07,15.81-19.07s15.91,7.21,15.91,19.07-6.52,19.36-15.91,19.36-15.81-7.41-15.81-19.36ZM129.39,153.11c0-9.19-4.35-14.92-10.97-14.92s-10.97,5.63-10.97,14.92,4.25,15.22,10.97,15.22,10.97-5.93,10.97-15.22Z"/>
      <path class="cls-2" d="M142.53,134.73h4.74v18.57h.2l15.31-18.57h5.43l-11.66,14.13,13.44,22.92h-5.34l-11.07-19.27-6.32,7.51v11.76h-4.74v-37.05h0Z"/>
    </g>
    <g>
      <path class="cls-2" d="M111.41,77.03V27.53h8.79v49.5h-8.79Z"/>
      <path class="cls-2" d="M131.96,77.03V27.53h16.7c3.46,0,6.52.49,9.29,1.38s4.94,2.47,6.52,4.54c1.58,2.07,2.37,5.04,2.37,8.79s-.89,6.82-2.67,9.19-4.15,3.95-7.11,5.04l11.86,20.65h-9.88l-10.67-19.36h-7.61v19.36l-8.79-.1h0ZM140.76,50.75h7.01c3.36,0,5.93-.69,7.81-2.17,1.78-1.48,2.67-3.56,2.67-6.32s-.89-4.84-2.67-5.93-4.35-1.68-7.81-1.68h-7.01v16.1h0Z"/>
    </g>
    <g id="Book">
      <path id="pages_right" data-name="pages right" class="cls-3" d="M87.11,75.65h5.14l-9.39-38.43,4.25,38.43h0Z"/>
      <path id="pages_left" data-name="pages left" class="cls-1" d="M82.86,37.31l-11.95,38.33h12.35l-.4-38.33Z"/>
      <polygon id="cover" class="cls-4" points="62.6 77.13 79.3 27.53 86.51 27.53 103.21 77.13 96.49 77.13 82.96 32.77 82.66 32.77 69.03 77.13 62.6 77.13"/>
    </g>
  </g>
</svg>