<?xml version="1.0" encoding="UTF-8"?>
<svg id="Layer_1" data-name="Layer 1" xmlns="http://www.w3.org/2000/svg" viewBox="0 0 200 200">
  <defs>
    <style>
      .cls-1, .cls-2, .cls-3 {
        stroke-width: 0px;
      }

      .cls-2 {
        fill: #36a7df;
      }

      .cls-3 {
        fill: #323e50;
      }
    </style>
  </defs>
  <g>
    <path class="cls-2" d="M29.45,90.6v1.57h-7.75v5.33h6.95v1.55h-6.95v6.42h-1.7v-14.87h9.45Z"/>
    <path class="cls-2" d="M40.82,101.67h-8.09l-1.66,3.8h-1.81l6.67-14.87h1.76l6.65,14.87h-1.85l-1.68-3.8ZM40.14,100.1l-3.38-7.65-3.34,7.65h6.71Z"/>
    <path class="cls-2" d="M48.38,90.6v14.87h-1.7v-14.87h1.7Z"/>
    <path class="cls-2" d="M62.62,105.48l-3.12-4.76c-.3.02-.62.04-.96.04h-3.95v4.72h-1.7v-14.87h5.65c3.72,0,5.86,1.83,5.86,4.99,0,2.44-1.21,4.12-3.36,4.8l3.51,5.08h-1.93ZM58.54,99.19c2.7,0,4.23-1.21,4.23-3.55s-1.53-3.46-4.23-3.46h-3.95v7.01h3.95Z"/>
    <path class="cls-1" d="M70.88,95.62c-1.25,0-2.21.45-2.21,1.51,0,2.53,6.25,1.23,6.25,5.25,0,2.19-1.95,3.17-4.1,3.17-1.59,0-3.23-.55-4.29-1.57l.64-1.21c.96.89,2.4,1.42,3.72,1.42s2.38-.51,2.4-1.64c.06-2.72-6.2-1.34-6.18-5.29,0-2.12,1.85-3.04,3.89-3.04,1.34,0,2.63.4,3.57,1.02l-.64,1.27c-.87-.55-2-.89-3.04-.89Z"/>
    <path class="cls-1" d="M88.01,98.59v6.88h-1.66v-6.46c0-2-1.19-3.19-3.17-3.19-2.38.02-3.78,1.72-3.78,4.16v5.48h-1.66v-15.76h1.66v7.1c.76-1.74,2.29-2.55,4.36-2.57,2.68,0,4.25,1.64,4.25,4.36Z"/>
    <path class="cls-1" d="M98.65,105.48v-1.74c-.89,1.21-2.32,1.81-4.1,1.81-2.32,0-3.8-1.47-3.8-3.38s1.55-3.19,4.19-3.21h3.68v-.7c0-1.64-1.02-2.63-3-2.63-1.23,0-2.38.47-3.55,1.3l-.7-1.17c1.44-.96,2.66-1.51,4.57-1.51,2.76,0,4.29,1.47,4.31,3.85l.02,7.39h-1.61ZM98.63,101.63v-1.36h-3.48c-1.87,0-2.85.57-2.85,1.83s1,2.06,2.57,2.06c1.89,0,3.34-.93,3.76-2.53Z"/>
    <path class="cls-1" d="M109.64,94.24v1.61c-2.36-.04-3.82,1.42-4.01,3.68v5.95h-1.66v-11.17h1.66v2.49c.74-1.64,2.12-2.53,4.01-2.55Z"/>
    <path class="cls-1" d="M113.76,91.09c0,.64-.47,1.13-1.08,1.13s-1.08-.49-1.08-1.13.47-1.13,1.08-1.13,1.08.47,1.08,1.13ZM113.5,94.3v11.17h-1.64v-11.17h1.64Z"/>
    <path class="cls-1" d="M127.78,98.59v6.88h-1.66v-6.46c0-2-1.19-3.19-3.17-3.19-2.21.02-3.57,1.49-3.76,3.65v5.99h-1.66v-11.17h1.66v2.46c.79-1.7,2.29-2.51,4.33-2.53,2.68,0,4.25,1.64,4.25,4.36Z"/>
    <path class="cls-1" d="M141.23,94.3v10.01c0,3.27-2.23,5.33-5.63,5.33-1.76-.02-3.23-.59-4.59-1.64l.76-1.21c1.1.91,2.27,1.4,3.76,1.42,2.44,0,4.04-1.51,4.04-3.87v-1.7c-.79,1.49-2.23,2.34-4.12,2.34-3.02,0-5.1-2.23-5.1-5.4s2.06-5.33,5.06-5.35c1.91-.02,3.36.85,4.16,2.34v-2.27s1.66,0,1.66,0ZM139.57,99.63c0-2.34-1.59-4.02-3.82-4.02s-3.82,1.68-3.85,4.02c.02,2.32,1.59,3.99,3.85,3.99s3.82-1.68,3.82-3.99Z"/>
    <path class="cls-2" d="M146.11,104.56c0,.62-.45,1.08-1.02,1.08s-1.04-.47-1.04-1.08.45-1.08,1.04-1.08c.57,0,1.02.47,1.02,1.08Z"/>
    <path class="cls-2" d="M159.43,99.87c0,3.34-2.36,5.67-5.67,5.67s-5.67-2.34-5.67-5.67,2.34-5.63,5.67-5.63c3.31,0,5.67,2.32,5.67,5.63ZM149.75,99.89c0,2.51,1.66,4.21,4.01,4.21s4.02-1.7,4.02-4.21-1.68-4.19-4.02-4.19c-2.36,0-4.01,1.72-4.01,4.19Z"/>
    <path class="cls-2" d="M168.02,94.24v1.61c-2.36-.04-3.82,1.42-4.01,3.68v5.95h-1.66v-11.17h1.66v2.49c.74-1.64,2.12-2.53,4.01-2.55Z"/>
    <path class="cls-2" d="M180,94.3v10.01c0,3.27-2.23,5.33-5.63,5.33-1.76-.02-3.23-.59-4.59-1.64l.76-1.21c1.1.91,2.27,1.4,3.76,1.42,2.44,0,4.04-1.51,4.04-3.87v-1.7c-.79,1.49-2.23,2.34-4.12,2.34-3.02,0-5.1-2.23-5.1-5.4s2.06-5.33,5.06-5.35c1.91-.02,3.36.85,4.16,2.34v-2.27s1.66,0,1.66,0ZM178.34,99.63c0-2.34-1.59-4.02-3.82-4.02s-3.82,1.68-3.85,4.02c.02,2.32,1.59,3.99,3.85,3.99s3.82-1.68,3.82-3.99Z"/>
  </g>
  <g>
    <path class="cls-2" d="M50.5,116.73c-3.36,0-7.19-1-11.12-4.01-3.88-2.96-7.55-4.21-10.9-3.71-4.03.6-6.21,3.58-6.23,3.6-.16.23-.48.28-.71.12-.23-.16-.28-.48-.12-.71.1-.14,2.43-3.35,6.89-4.02,3.65-.55,7.58.77,11.7,3.91,11.11,8.49,21.33.1,21.43.02.21-.18.54-.16.72.06.18.22.15.54-.06.72-.07.06-4.9,4.02-11.58,4.02h0Z"/>
    <path class="cls-3" d="M29.94,116.75c-.55,0-1.09-.04-1.63-.12-4.46-.67-6.8-3.89-6.89-4.03-.16-.23-.11-.54.12-.71.23-.16.55-.11.71.12.02.03,2.2,3.01,6.23,3.61,3.36.5,7.03-.75,10.9-3.72,11.76-8.97,22.6-.08,22.71.02.21.19.24.5.06.72-.18.22-.5.24-.72.06-.42-.35-10.34-8.46-21.43.01-3.51,2.68-6.88,4.03-10.06,4.03h0Z"/>
  </g>
</svg>