<?xml version="1.0" encoding="UTF-8"?>
<svg width="159px" height="159px" viewBox="0 0 159 159" version="1.1" xmlns="http://www.w3.org/2000/svg" xmlns:xlink="http://www.w3.org/1999/xlink">
    <g stroke="none" stroke-width="1" fill="none" fill-rule="evenodd">
        <path d="M85.309202,12.6632917 C88.7399373,11.4519771 92.295707,11.8831239 95.1722822,14.0937466 C98.8457931,16.9168075 100.638369,21.8354438 101.461903,29.1597344 L101.552678,30.0155385 C101.567107,30.1599577 101.581192,30.305271 101.594937,30.4514806 L101.673394,31.3395111 C101.97233,34.946396 99.2903719,38.1126616 95.6830734,38.4115632 C92.1413621,38.7050302 89.024442,36.1253437 88.6293453,32.6177388 L88.5305438,31.5369739 C88.3480738,29.6647575 88.1021946,28.0870843 87.8060844,26.8200273 L87.7303629,26.5094284 L87.5227519,26.7102543 L87.3064061,26.9240845 L86.9748855,27.2623373 C86.9191336,27.3202383 86.8631327,27.3789019 86.8068832,27.4383277 L86.4664044,27.8040266 L86.1199729,28.1880036 L85.7676042,28.5902433 L85.4093137,29.0107302 C85.349106,29.0823311 85.2886522,29.1546917 85.2279526,29.2278116 L84.8608085,29.6756405 L84.4877813,30.1416782 C84.4251207,30.2208677 84.3622156,30.3008152 84.2990663,30.3815205 L83.9172435,30.8748423 L83.5295762,31.3863344 L83.13608,31.9159812 L82.7367703,32.4637674 L82.3316627,33.0296775 L81.9207725,33.6136962 L81.5041152,34.215808 L81.0817064,34.8359974 L80.6535615,35.4742492 L80.2196959,36.1305478 L79.7801251,36.8048779 L79.3348647,37.497224 L78.8839301,38.2075708 L78.1969228,39.3068083 L77.7318702,40.0620892 L77.0237587,41.2286557 L76.3030542,42.4355501 L75.5698089,43.6827205 L74.8240752,44.9701149 L74.3200071,45.8506987 L73.5535752,47.2050174 L72.774794,48.5994212 L71.9837158,50.0338581 L71.1803928,51.5082763 L70.6380672,52.5134077 L69.8144522,54.0543455 L69.258647,55.1037752 L68.414885,56.711088 L67.5591045,58.3581566 L66.9819329,59.4782631 L65.8116966,61.7713527 L64.9201737,63.5373761 L64.3349643,64.7047333 L64.7720603,64.6043905 C77.6666638,61.6431594 87.735724,61.6408245 95.17419,64.8548657 L95.4784,64.988761 C100.402498,67.1961261 100.697966,74.0750485 95.9812742,76.6964157 L94.9045726,77.2909232 L93.8170058,77.8837148 L92.7122461,78.478329 L91.5839661,79.078304 L90.4258382,79.6871782 L89.2315347,80.30849 L87.3584087,81.2715184 L76.754765,86.614428 L76.0642245,86.9663432 L74.7167492,87.6593731 C74.4958452,87.7737249 74.2767592,87.8875159 74.0594617,88.0007693 L72.7769052,88.6740281 L71.5358638,89.3355139 C71.3324048,89.444843 71.1306168,89.5537284 70.9304704,89.6621937 L69.749056,90.3081312 L69.1463574,90.6416444 L78.9109969,88.0817163 L81.7784607,87.3413113 L83.6686928,86.8618394 L85.4986814,86.4058359 L87.2701543,85.9732551 L88.4194808,85.6978579 L90.0972672,85.3042132 L91.7211454,84.933869 L93.2928433,84.5867797 L94.312506,84.3682836 L95.3102572,84.1600891 L96.7669201,83.8670831 L98.1771619,83.5971794 L99.0923869,83.4300556 C99.2432976,83.4030548 99.3934019,83.3764804 99.5427106,83.3503322 L100.4291,83.198554 L101.296906,83.0569892 L102.146639,82.9256242 L102.978813,82.8044456 C103.116074,82.7850973 103.252624,82.7661728 103.388475,82.747672 L104.195269,82.6417474 C104.328364,82.6249397 104.46078,82.6085551 104.592529,82.5925931 L105.375095,82.5018921 L106.142148,82.4213232 L106.894202,82.3508727 C107.018322,82.3399734 107.141839,82.3294952 107.264763,82.3194377 L107.995276,82.2641396 C108.115871,82.255764 108.235894,82.2478086 108.355356,82.2402731 L109.06548,82.2000969 L109.762652,82.1699849 L110.447384,82.1499236 C110.786725,82.1424033 111.121593,82.138647 111.452275,82.138647 C118.508832,82.138647 120.581497,91.7586035 114.150881,94.6638119 L113.358122,95.0263259 L112.228371,95.5561133 L111.32653,95.9882678 L110.051407,96.6108742 L108.69328,97.2864884 L107.252195,98.0150874 L105.334251,99.000311 L103.286851,100.068243 L100.659218,101.458872 L98.8040493,102.45205 L95.8662948,104.040898 L93.276182,105.455712 L91.6365355,106.356289 L92.147846,106.230675 C109.256721,102.052108 125.329931,99.9097444 140.373248,99.8123594 L141.446019,99.8088814 C145.065683,99.8088814 148,102.742862 148,106.362111 C148,109.981359 145.065683,112.91534 141.446019,112.91534 C107.971539,112.91534 68.2918588,123.990611 22.4848786,146.259619 C14.9408662,149.927132 9.06219981,138.997729 16.2813764,134.726294 L25.141241,129.494356 L32.6674345,125.067639 L40.7419875,120.339226 L46.7352636,116.845622 L52.4777475,113.512929 L56.4261137,111.230883 L62.4778447,107.750132 L67.5051546,104.876512 L68.3552533,104.392633 L65.7850215,105.051344 L63.8673384,105.528417 L62.689949,105.809004 L61.3210397,106.116528 L60.4696149,106.296343 L59.1727884,106.557615 L58.070403,106.774236 L57.1264791,106.954302 C54.0374991,107.526996 51.517439,107.823468 49.4040851,107.815235 C47.8254924,107.809085 46.412478,107.636983 45.0891479,107.214854 C42.9938903,106.546487 41.194741,105.271278 40.0672434,103.219731 C38.7111746,100.752285 39.0828944,97.6945121 40.9906534,95.6237444 C46.2549739,89.9096135 51.829388,85.5746889 59.6089992,80.9967574 L60.7090287,80.3562359 C61.26639,80.0350234 61.8349142,79.7122608 62.4152447,79.3873971 L63.5918383,78.7347054 L64.7405401,78.107244 L64.3795885,78.2014654 C61.6026813,78.9272742 58.644288,79.8032253 55.5074011,80.8332709 L54.0997905,81.3017999 C48.6208476,83.1497357 43.6073502,77.5146348 46.081026,72.2888211 L46.8917889,70.5809417 L48.0940249,68.0669773 L49.2796478,65.6103619 L50.0608761,64.0044364 L51.2190024,61.6432114 L52.360746,59.3391058 L53.4861934,57.0920334 L54.2274808,55.6256278 L54.9615895,54.1845065 L55.6885451,52.768644 L56.4083731,51.3780148 L57.474807,49.3393277 L58.1769283,48.0116701 L58.8720117,46.7091565 L59.5600827,45.4317614 L60.2411671,44.1794593 L60.9152905,42.9522246 L61.9134795,41.1583181 L62.5703122,39.9936404 C62.679211,39.8016096 62.7878235,39.6106196 62.8961502,39.4206699 L63.5426854,38.2934497 L64.1823876,37.1911695 L64.8152823,36.1138035 L65.4413953,35.0613264 C65.5451837,34.8879862 65.6486907,34.715682 65.7519166,34.5444132 L66.3679049,33.5292215 C66.4700091,33.3620923 66.5718334,33.1959976 66.6733783,33.0309366 L67.2792996,32.0529729 L67.8785415,31.0997959 L68.4711297,30.1713802 L69.0570897,29.2677001 C69.1541988,29.1191467 69.2510328,28.9716229 69.3475922,28.8251281 L69.9236581,27.9585038 L70.4931598,27.1165514 C70.8706453,26.5634682 71.2437718,26.0268159 71.6125735,25.5065605 L72.1625366,24.7384708 L72.7060381,23.9949511 C72.9761776,23.6293294 73.2439037,23.2729119 73.5092306,22.9256841 L74.03669,22.2434773 L74.5577773,21.5857512 C75.1620054,20.8326743 75.7532763,20.1295266 76.3317729,19.4761255 L76.824503,18.9282461 L77.3110019,18.4047068 C77.5526979,18.149018 77.7920667,17.9024472 78.0291229,17.6649801 C80.4585953,15.2312959 82.81793,13.5429031 85.309202,12.6632917 Z" fill="#019AD6" fill-rule="nonzero"></path>
    </g>
</svg>