<svg width="142" height="43" viewBox="0 0 142 43" fill="none" xmlns="http://www.w3.org/2000/svg">
<path d="M17.7137 34.1714C17.6272 34.5787 17.4049 34.9437 17.084 35.2055C16.7631 35.4673 16.363 35.6101 15.9503 35.6101C15.5377 35.6101 15.1375 35.4673 14.8166 35.2055C14.4957 34.9437 14.2735 34.5787 14.187 34.1714L13.7862 23.6844C14.5076 23.6844 15.229 23.6844 15.9503 23.6844C16.6717 23.6844 17.4031 23.6844 18.1144 23.6844L17.7137 34.1714ZM16.7819 18.183C18.1846 18.183 19.5572 18.2841 20.8897 18.4257L21.4708 21.4595C19.6674 21.3079 17.8239 21.227 15.9503 21.227C14.0768 21.227 12.2433 21.3079 10.4399 21.4595L11.0109 18.4257C12.3468 18.2841 13.7194 18.2032 15.1288 18.183C14.3463 17.1195 13.3302 16.2536 12.1602 15.6535C10.9902 15.0534 9.69829 14.7353 8.38595 14.7244C7.2983 14.7097 6.21846 14.9115 5.20817 15.3184C4.19788 15.7253 3.27698 16.3292 2.49812 17.0957C1.71926 17.8621 1.09773 18.776 0.669083 19.7851C0.240433 20.7942 0.0130713 21.8786 0 22.9765C0 30.6522 8.01524 36.8615 15.9503 43C23.8754 36.8615 31.9107 30.6522 31.9107 22.9765C31.8805 21.5445 31.4895 20.144 30.7746 18.9068C30.0597 17.6696 29.0444 16.6365 27.8245 15.905C26.6045 15.1735 25.2201 14.7676 23.8018 14.7255C22.3834 14.6835 20.9778 15.0068 19.7175 15.6649C24.3162 7.33184 11.3315 5.71378 13.7061 0C12.9447 0.388136 12.2738 0.935386 11.7381 1.60538C11.2024 2.27538 10.814 3.05279 10.5989 3.88594C10.3838 4.71909 10.3468 5.58892 10.4904 6.43762C10.634 7.28631 10.9549 8.09445 11.4317 8.80833C10.903 8.60645 10.4225 8.29393 10.0219 7.89132C9.62129 7.4887 9.30961 7.00509 9.10732 6.47225C7.46419 11.9029 12.6541 11.3062 13.1149 14.4918C15.1187 13.3996 13.5558 10.8107 13.5558 10.8107C16.7018 12.1759 18.7957 14.8558 16.7218 18.183" fill="#E30820"/>
<path d="M56.247 31.7039V32.2298H58.4812V24.1395H56.247V24.6957C55.5355 24.2079 54.6923 23.9536 53.8324 23.9676C53.3008 23.9514 52.7718 24.0483 52.2798 24.2522C51.7878 24.4561 51.3439 24.7622 50.9769 25.1508C50.2097 25.9711 49.7822 27.0565 49.7822 28.1846C49.7822 29.3128 50.2097 30.3982 50.9769 31.2185C51.3406 31.6147 51.7828 31.9292 52.2747 32.1418C52.7666 32.3543 53.2973 32.4601 53.8324 32.4523C54.6916 32.461 55.5333 32.2072 56.247 31.7241M56.247 29.5499C56.0194 29.8699 55.718 30.1293 55.3689 30.3055C55.0197 30.4817 54.6334 30.5694 54.2431 30.5612C53.946 30.5671 53.6509 30.5088 53.3779 30.3902C53.1049 30.2716 52.8601 30.0954 52.6601 29.8735C52.2606 29.4112 52.0404 28.8184 52.0404 28.2049C52.0404 27.5913 52.2606 26.9986 52.6601 26.5362C52.8548 26.3063 53.098 26.1233 53.372 26.0008C53.6459 25.8783 53.9436 25.8194 54.2431 25.8283C54.6337 25.8183 55.0206 25.9053 55.37 26.0817C55.7194 26.258 56.0206 26.5183 56.247 26.8396V29.5499Z" fill="#E30820"/>
<path d="M62.589 27.3351C62.9632 26.9444 63.4116 26.6338 63.9073 26.4218C64.4031 26.2098 64.9361 26.1008 65.4745 26.1014V23.9574C64.3942 23.9547 63.3568 24.3838 62.589 25.1508V24.1395H60.3548V32.2298H62.589V27.3351Z" fill="#E30820"/>
<path d="M66.6768 21.5V29.0139C66.6292 29.4645 66.678 29.9202 66.8199 30.3501C66.9618 30.78 67.1936 31.1742 67.4994 31.5059C67.8053 31.8376 68.1781 32.0992 68.5928 32.2729C69.0074 32.4467 69.4542 32.5285 69.9029 32.5129C70.6275 32.5001 71.3464 32.3809 72.037 32.159L71.7464 30.2072C71.3129 30.3329 70.8649 30.4009 70.4139 30.4095C69.412 30.4095 68.891 29.924 68.891 28.9633V25.9294H71.4458V24.1395H68.891V21.5H66.6768Z" fill="#E30820"/>
<path d="M72.9687 29.5397C72.9765 29.9793 73.0855 30.4111 73.2873 30.8008C73.489 31.1904 73.7778 31.5274 74.1309 31.7848C74.9144 32.2949 75.8344 32.5491 76.766 32.5129C79.0102 32.5129 80.4029 31.5017 80.4029 29.7825C80.4029 28.4678 79.5913 27.6689 77.9783 27.4059L76.4854 27.1733C75.6238 27.0318 75.4835 26.6272 75.4835 26.3137C75.4835 25.8384 75.9845 25.535 76.776 25.535C77.5675 25.535 78.2688 25.889 78.349 26.5463H80.3528C80.3278 26.0995 80.1893 25.6666 79.9507 25.2894C79.712 24.9121 79.3813 24.6032 78.9902 24.3923C78.2907 24.039 77.518 23.8587 76.7359 23.8664C74.6219 23.8664 73.2493 24.8777 73.2493 26.5362C73.2493 27.8104 74.0909 28.6599 75.6138 28.9229L77.3671 29.2161C78.0985 29.3375 78.2488 29.7016 78.2488 29.9847C78.2488 30.46 77.6777 30.7735 76.786 30.7735C75.8943 30.7735 75.1529 30.3589 75.0026 29.5397H72.9687Z" fill="#E30820"/>
<path d="M81.8356 21.5V29.0139C81.788 29.4645 81.8368 29.9202 81.9787 30.3501C82.1207 30.78 82.3524 31.1742 82.6582 31.5059C82.9641 31.8376 83.337 32.0992 83.7516 32.2729C84.1663 32.4467 84.613 32.5285 85.0617 32.5129C85.7864 32.501 86.5054 32.3818 87.1958 32.159L86.9052 30.2375C86.4718 30.3639 86.0238 30.4319 85.5727 30.4398C84.5708 30.4398 84.0598 29.9544 84.0598 28.9937V25.9598H86.6047V24.1395H84.0598V21.5H81.8356Z" fill="#E30820"/>
<path d="M91.0231 24.0889H88.7788V32.25H91.0231V24.0889Z" fill="#E30820"/>
<path d="M89.9009 19.7404C89.6425 19.7483 89.3921 19.8326 89.1806 19.9827C88.9691 20.1328 88.8059 20.3422 88.711 20.585C88.6162 20.8278 88.594 21.0933 88.647 21.3487C88.7001 21.6041 88.8262 21.8382 89.0097 22.022C89.1932 22.2059 89.426 22.3314 89.6794 22.3831C89.9329 22.4348 90.1957 22.4104 90.4355 22.3128C90.6753 22.2153 90.8816 22.049 91.0287 21.8344C91.1759 21.6199 91.2575 21.3665 91.2635 21.1056C91.2649 20.9269 91.2307 20.7497 91.163 20.5845C91.0953 20.4194 90.9954 20.2696 90.8692 20.1442C90.7431 20.0188 90.5932 19.9202 90.4286 19.8543C90.264 19.7884 90.088 19.7565 89.911 19.7606" fill="#E30820"/>
<path d="M121.661 24.0889H119.417V32.25H121.661V24.0889Z" fill="#E30820"/>
<path d="M120.539 19.7404C120.28 19.7464 120.029 19.829 119.816 19.9779C119.603 20.1269 119.438 20.3356 119.342 20.5783C119.246 20.8209 119.222 21.0868 119.274 21.3429C119.326 21.5989 119.451 21.834 119.634 22.0188C119.818 22.2037 120.05 22.3302 120.304 22.3826C120.558 22.4351 120.821 22.4112 121.062 22.314C121.302 22.2167 121.509 22.0504 121.656 21.8356C121.804 21.6208 121.886 21.3669 121.892 21.1056C121.895 20.9265 121.861 20.7486 121.794 20.5828C121.727 20.417 121.627 20.2667 121.501 20.141C121.374 20.0153 121.224 19.9167 121.058 19.8514C120.893 19.786 120.717 19.7551 120.539 19.7606" fill="#E30820"/>
<path d="M96.8742 23.917C96.3025 23.9023 95.7338 24.0039 95.2019 24.2159C94.67 24.4279 94.1858 24.7458 93.7783 25.1508C93.3727 25.5407 93.0525 26.0122 92.8385 26.5348C92.6245 27.0573 92.5214 27.6194 92.5359 28.1846C92.5287 28.7489 92.6351 29.3088 92.8486 29.8303C93.0622 30.3518 93.3785 30.8241 93.7783 31.2185C94.6116 32.0178 95.725 32.4506 96.8742 32.4219C97.8725 32.4492 98.8483 32.1197 99.6294 31.4915C100.35 30.9017 100.816 30.0539 100.932 29.1251H98.6876C98.5816 29.52 98.3426 29.8653 98.0116 30.1016C97.6806 30.3378 97.2784 30.4503 96.8742 30.4196C96.5854 30.4256 96.2986 30.3713 96.0316 30.2601C95.7646 30.1489 95.5234 29.9831 95.3229 29.7732C95.1225 29.5633 94.9673 29.3138 94.867 29.0404C94.7667 28.767 94.7235 28.4757 94.7401 28.1846C94.7223 27.8909 94.7644 27.5966 94.8636 27.3199C94.9629 27.0432 95.1172 26.7899 95.3172 26.5758C95.5172 26.3616 95.7585 26.1911 96.0263 26.0747C96.2941 25.9583 96.5826 25.8986 96.8742 25.8991C97.2821 25.8719 97.6865 25.9895 98.0176 26.2314C98.3488 26.4733 98.5858 26.8243 98.6876 27.2239H100.932C100.819 26.2997 100.352 25.4571 99.6294 24.8777C98.8538 24.2364 97.8767 23.8957 96.8742 23.917Z" fill="#E30820"/>
<path d="M104.819 26.961C105.031 26.6468 105.31 26.3853 105.637 26.1961C105.963 26.0069 106.327 25.895 106.703 25.8688C107.875 25.8688 108.546 26.6373 108.546 27.9722V32.2298H110.791V27.77C110.84 26.7175 110.481 25.687 109.789 24.8979C109.461 24.5529 109.062 24.2838 108.621 24.1093C108.18 23.9347 107.707 23.8587 107.234 23.8866C106.336 23.8829 105.469 24.2143 104.799 24.817V20.0943H102.585V32.2298H104.819V26.961Z" fill="#E30820"/>
<path d="M125.98 26.961C126.191 26.6468 126.471 26.3853 126.797 26.1961C127.123 26.0069 127.488 25.895 127.863 25.8688C129.035 25.8688 129.707 26.6374 129.707 27.9723V32.2298H131.951V27.77C132 26.7175 131.641 25.687 130.949 24.8979C130.621 24.5529 130.223 24.2839 129.782 24.1093C129.34 23.9347 128.867 23.8587 128.394 23.8867C127.497 23.8829 126.63 24.2143 125.96 24.817V24.1395H123.725V32.2298H125.96L125.98 26.961Z" fill="#E30820"/>
<path d="M112.474 21.5V29.0139C112.428 29.4641 112.478 29.9191 112.62 30.3483C112.763 30.7775 112.995 31.1709 113.3 31.5023C113.606 31.8337 113.978 32.0953 114.392 32.2696C114.806 32.4439 115.252 32.5268 115.7 32.5129C116.425 32.5017 117.144 32.3825 117.834 32.159L117.554 30.2375C117.12 30.3632 116.672 30.4312 116.221 30.4398C115.219 30.4398 114.698 29.9544 114.698 28.9936V25.9598H117.253V24.1395H114.698V21.5H112.474Z" fill="#E30820"/>
<path d="M139.776 31.2185V32.2298C139.801 32.5041 139.767 32.7806 139.676 33.0403C139.585 33.3 139.439 33.5366 139.249 33.7338C139.058 33.931 138.827 34.084 138.572 34.1822C138.317 34.2805 138.044 34.3217 137.772 34.3029C137.32 34.3661 136.86 34.2526 136.488 33.9858C136.116 33.7189 135.858 33.3188 135.768 32.8669H133.504C133.544 33.344 133.681 33.8077 133.907 34.2288C134.133 34.6499 134.442 35.0194 134.816 35.3142C135.646 35.9966 136.692 36.3555 137.762 36.3255C138.87 36.3689 139.95 35.9691 140.768 35.2131C141.175 34.836 141.497 34.3738 141.71 33.8586C141.922 33.3434 142.022 32.7875 142 32.2298V24.1395H139.776V24.5339C139.061 24.0544 138.219 23.8041 137.361 23.8159C136.83 23.8037 136.301 23.9015 135.808 24.1033C135.315 24.305 134.869 24.6064 134.496 24.9889C134.103 25.3851 133.796 25.8593 133.594 26.3816C133.392 26.9038 133.3 27.4627 133.323 28.0228C133.321 28.5449 133.425 29.0619 133.628 29.5419C133.832 30.022 134.13 30.4549 134.506 30.814C134.883 31.1816 135.328 31.4695 135.817 31.6605C136.306 31.8516 136.827 31.942 137.351 31.9264C138.211 31.941 139.055 31.6866 139.766 31.1983M139.766 28.9835C139.549 29.3182 139.251 29.5914 138.901 29.7772C138.55 29.9631 138.158 30.0554 137.762 30.0454C137.471 30.0524 137.182 29.9985 136.913 29.8871C136.644 29.7757 136.401 29.6092 136.199 29.3982C135.804 29.0164 135.574 28.4934 135.558 27.9419C135.541 27.6425 135.586 27.3428 135.69 27.0619C135.794 26.781 135.955 26.5249 136.162 26.31C136.369 26.0951 136.619 25.9261 136.894 25.8135C137.169 25.701 137.465 25.6475 137.762 25.6564C138.153 25.6428 138.541 25.7282 138.891 25.9048C139.241 26.0815 139.542 26.3437 139.766 26.6677V28.9835Z" fill="#E30820"/>
<path d="M45.9874 32.25H48.3319V21.5H45.9874V25.7778H41.4588V21.5H39.1144V32.25H41.4588V27.9217H45.9874V32.25Z" fill="#E30820"/>
</svg>
