<?xml version="1.0" encoding="UTF-8"?>
<svg id="Laag_1" data-name="Laag 1" xmlns="http://www.w3.org/2000/svg" viewBox="0 0 1000 410">
  <defs>
    <style>
      .cls-1 {
        fill: #fff;
      }

      .cls-2 {
        fill: #fa0f0e;
      }
    </style>
  </defs>
  <rect class="cls-2" width="1000" height="410"/>
  <g>
    <path class="cls-1" d="M334.14,202.21l-29.18-87.17c-.88-2.62-2.81-5.24-5.05-6.84l-21.07-15.1c-4.01-2.87-9.64-2.64-13.4.55l-47.82,44.98,41.15,29.8c5.32,3.86,7.54,10.72,5.49,17.03l-16.31,50.18c-2.05,6.31-7.88,10.55-14.52,10.55h-52.76c-6.63,0-12.47-4.24-14.52-10.55l-16.31-50.18c-2.05-6.31.18-13.17,5.49-17.03l41.15-29.8-47.82-44.98c-3.76-3.19-9.39-3.42-13.4-.55l-21.07,15.1c-2.24,1.6-4.18,4.22-5.05,6.84l-29.18,87.17c-.88,2.64-.9,5.93-.04,8.59l14.76,45.43c.83,2.55,2.66,5.15,4.79,6.78l68.28,52.54c2.26,1.73,5.42,2.81,8.27,2.81h62.02c2.85,0,6.02-1.08,8.27-2.81l68.28-52.54c2.12-1.63,3.96-4.23,4.79-6.78l14.76-45.43c.86-2.65.85-5.94-.04-8.59ZM245.61,137.07l27.24-26.52,12.82,9.19-12.36,37.97c-1.28-1.3-2.67-2.52-4.19-3.62l-23.51-17.02ZM141.29,110.55l27.24,26.52-23.51,17.02c-1.52,1.1-2.91,2.32-4.19,3.62l-12.36-37.97,12.82-9.19ZM97.17,206.58l20.77-62.06,15.1,46.4s0,0,0,0l16.31,50.18c.58,1.78,1.3,3.47,2.14,5.09h-41.45l-12.87-39.61ZM236.68,300.68h-59.23l-47.85-36.82h154.93l-47.85,36.82ZM304.09,246.19h-41.45c.84-1.61,1.56-3.31,2.14-5.09l16.31-50.18s0,0,0,0l15.1-46.4,20.77,62.06-12.87,39.61Z"/>
    <g>
      <polygon class="cls-1" points="703.59 227.25 669.87 121.42 639.31 121.42 604.36 227.25 573.32 121.42 532.75 121.42 587.25 294.96 617.8 294.96 654.47 186.44 691.38 294.96 721.93 294.96 776.19 121.42 735.62 121.42 703.59 227.25"/>
      <polygon class="cls-1" points="920.43 156.62 920.43 121.42 798.53 121.42 798.53 294.96 837.14 294.96 837.14 224.32 905.1 224.32 905.1 191.33 837.14 191.33 837.14 156.62 920.43 156.62"/>
      <path class="cls-1" d="M478.74,227.28l-24.78-33.3,59.48-72.55h-43.02l-58.66,73.08v-73.08h-38.62v173.54h38.62v-49.37l14.42-17.84,3.36-4.09,15.87,20.8c28.89,41.59,47.25,50.9,76.04,50.9,1.93,0,4.04-.15,5.98-.35v-36.21c-.95.06-1.96.09-3.01.08-12.98-.06-25.79-3-45.69-31.61Z"/>
    </g>
  </g>
</svg>