<svg xmlns="http://www.w3.org/2000/svg" width="205" height="37" viewBox="0 0 205 37">
  <defs>
    <linearGradient id="maastricht-umc-logo-a" x1="61.227%" x2="44.56%" y1="71.961%" y2="24.356%">
      <stop offset="0%" stop-color="#F9BD5B"/>
      <stop offset="100%" stop-color="#E85D10"/>
    </linearGradient>
    <linearGradient id="maastricht-umc-logo-b" x1="57.897%" x2="35.993%" y1="5.998%" y2="93.885%">
      <stop offset="0%" stop-color="#F9BD5B"/>
      <stop offset="100%" stop-color="#E85D10"/>
    </linearGradient>
    <linearGradient id="maastricht-umc-logo-c" x1="129.141%" x2="8.563%" y1="6.978%" y2="67.603%">
      <stop offset="0%" stop-color="#F9BD5B"/>
      <stop offset="100%" stop-color="#E85D10"/>
    </linearGradient>
    <linearGradient id="maastricht-umc-logo-d" x1="59.451%" x2="45.542%" y1="11.682%" y2="80.645%">
      <stop offset="0%" stop-color="#F9BD5B"/>
      <stop offset="100%" stop-color="#E85D10"/>
    </linearGradient>
    <linearGradient id="maastricht-umc-logo-e" x1="71.628%" x2="30.663%" y1="34.383%" y2="57.458%">
      <stop offset="0%" stop-color="#F9BA00"/>
      <stop offset="100%" stop-color="#E85D10"/>
    </linearGradient>
  </defs>
  <g fill="none" fill-rule="evenodd">
    <path fill="#004489" d="M203.154217,18.5491106 L203.154217,16.3363836 L199.886821,16.3363836 L199.886821,13.0175348 L197.381077,13.0175348 L197.381077,16.3363836 L194.113198,16.3363836 L194.113198,18.5491106 L197.381077,18.5491106 L197.381077,21.9027446 L199.886821,21.9027446 L199.886821,18.5491106 L203.154217,18.5491106 Z M192.795466,24.674934 L192.460417,22.0846424 C191.67944,22.4421572 190.451087,22.7098102 189.536042,22.7098102 C186.499582,22.7098102 185.13716,20.8789961 185.13716,17.596865 C185.13716,14.6720071 186.521323,12.5505914 189.334578,12.5505914 C190.361708,12.5505914 191.388839,12.7068834 192.371521,12.997485 L192.684347,10.3627456 C191.701906,10.0946095 190.563173,9.96078298 189.49087,9.96078298 C184.444838,9.96078298 181.944167,13.3098273 181.944167,18.0879647 C181.944167,21.8389717 183.641154,25.3445496 188.910633,25.3445496 C190.317261,25.3445496 191.67944,25.0764135 192.795466,24.674934 L192.795466,24.674934 Z M180.850364,25.1435683 L178.505743,10.0723856 L175.134234,10.0723856 L172.544667,17.8647595 C172.164928,18.9812687 171.919257,19.8294002 171.695569,20.9905987 L171.651604,20.9905987 C171.45014,19.9185373 171.182245,18.8916484 170.824731,17.8203117 L168.301835,10.0723856 L164.90786,10.0723856 L162.586188,25.1435683 L165.533269,25.1435683 L166.381642,18.1995673 C166.5604,16.88256 166.716209,15.6991376 166.805587,14.3594232 L166.85076,14.3594232 C167.029517,15.564828 167.409498,16.9272494 167.810736,18.1551196 L170.11115,25.1435683 L172.99156,25.1435683 L175.380146,17.5746411 C175.759401,16.3912187 176.005314,15.3193989 176.206295,14.3594232 L176.250743,14.3594232 C176.362345,15.4087776 176.496413,16.5252867 176.719377,17.9541382 L177.791197,25.1435683 L180.850364,25.1435683 Z M161.202267,19.2938526 L161.202267,10.0723856 L158.321616,10.0723856 L158.321616,19.47261 C158.321616,22.0401946 157.383139,22.9777048 155.151087,22.9777048 C152.650416,22.9777048 152.025248,21.6384735 152.025248,19.740263 L152.025248,10.0723856 L149.121889,10.0723856 L149.121889,19.9185373 C149.121889,22.7989474 150.194192,25.3892389 154.949381,25.3892389 C158.924318,25.3892389 161.202267,23.4243567 161.202267,19.2938526 L161.202267,19.2938526 Z M142.826488,25.0764135 L142.826488,22.776965 C142.424042,22.8883261 141.910718,22.9554809 141.441843,22.9554809 C140.459402,22.9554809 140.124352,22.5535183 140.124352,21.1246667 L140.124352,16.2571506 L142.826488,16.2571506 L142.826488,14.0468393 L140.124352,14.0468393 L140.124352,9.87164583 L137.266891,10.6306402 L137.266891,14.0468393 L135.36868,14.0468393 L135.36868,16.2571506 L137.288873,16.2571506 L137.288873,21.8841442 C137.288873,24.4739527 138.048109,25.3672566 140.504091,25.3672566 C141.285551,25.3672566 142.1117,25.2551709 142.826488,25.0764135 L142.826488,25.0764135 Z M133.895139,25.1435683 L133.895139,17.3514359 C133.895139,15.4087776 133.091456,13.8011687 130.590784,13.8011687 C128.871331,13.8011687 127.59853,14.6273178 126.951138,15.8776535 L126.906449,15.8554296 C127.063224,15.2077963 127.10743,14.2700445 127.10743,13.5999458 L127.10743,8.84427382 L124.249486,8.84427382 L124.249486,25.1435683 L127.10743,25.1435683 L127.10743,19.7851939 C127.10743,17.8425356 128.246163,16.1902374 129.69748,16.1902374 C130.746835,16.1902374 131.05966,16.88256 131.05966,18.043517 L131.05966,25.1435683 L133.895139,25.1435683 Z M122.016951,24.8309844 L121.793262,22.3974679 C121.19056,22.7098102 120.364411,22.8663437 119.605416,22.8663437 C117.707447,22.8663437 116.970919,21.5713187 116.970919,19.6733498 C116.970919,17.5746411 117.886446,16.2349267 119.694795,16.2349267 C120.409583,16.2349267 121.101181,16.4134426 121.704608,16.6366478 L121.994968,14.1584419 C121.279939,13.9574606 120.476013,13.845858 119.717261,13.845858 C115.787496,13.845858 113.978906,16.5028213 113.978906,19.9637098 C113.978906,23.7369407 115.899099,25.3445496 118.98049,25.3445496 C120.163913,25.3445496 121.258198,25.1215859 122.016951,24.8309844 L122.016951,24.8309844 Z M109.044477,25.1438098 L111.902421,25.1438098 L111.902421,14.0468393 L109.044477,14.0468393 L109.044477,25.1438098 Z M112.259936,10.8760693 C112.259936,9.91609362 111.456011,9.1570993 110.47357,9.1570993 C109.491612,9.1570993 108.709669,9.93831752 108.709669,10.8760693 C108.709669,11.8362865 109.491612,12.6177462 110.47357,12.6177462 C111.456011,12.6177462 112.259936,11.8362865 112.259936,10.8760693 L112.259936,10.8760693 Z M107.19168,13.8011687 C105.271487,13.6448767 104.199667,14.8729885 103.663878,16.2793745 L103.619189,16.2793745 C103.753016,15.4981563 103.819929,14.6048523 103.819929,14.0468393 L101.118518,14.0468393 L101.118518,25.1435683 L103.976462,25.1435683 L103.976462,20.6113431 C103.976462,17.5299517 105.003593,16.1902374 107.057612,16.6146654 L107.19168,13.8011687 Z M98.7963622,25.0764135 L98.7963622,22.776965 C98.3946412,22.8883261 97.8808344,22.9554809 97.4119585,22.9554809 C96.429759,22.9554809 96.0947096,22.5535183 96.0947096,21.1246667 L96.0947096,16.2571506 L98.7963622,16.2571506 L98.7963622,14.0468393 L96.0947096,14.0468393 L96.0947096,9.87164583 L93.236765,10.6306402 L93.236765,14.0468393 L91.3390376,14.0468393 L91.3390376,16.2571506 L93.2589889,16.2571506 L93.2589889,21.8841442 C93.2589889,24.4739527 94.0182248,25.3672566 96.4744483,25.3672566 C97.2559081,25.3672566 98.0820573,25.2551709 98.7963622,25.0764135 L98.7963622,25.0764135 Z M90.3121488,21.7053868 C90.3121488,18.1104302 85.756975,18.9141139 85.756975,17.1055236 C85.756975,16.4134426 86.2927641,15.9670322 87.4092733,15.9670322 C88.1015959,15.9670322 88.8381248,16.0783932 89.4635342,16.2571506 L89.5529129,14.00215 C88.8830557,13.8905474 88.1685092,13.8011687 87.5211174,13.8011687 C84.3950367,13.8011687 82.8098933,15.4087776 82.8098933,17.3514359 C82.8098933,21.1246667 87.2976707,20.0081576 87.2976707,21.9732813 C87.2976707,22.7098102 86.5833657,23.1564622 85.4890804,23.1564622 C84.6407074,23.1564622 83.7923344,23.0001702 83.1002533,22.8216544 L83.0330985,25.1660337 C83.7474034,25.2776363 84.5513287,25.3672566 85.3550124,25.3672566 C88.3917144,25.3672566 90.3121488,23.8934742 90.3121488,21.7053868 L90.3121488,21.7053868 Z M77.8979293,20.4997405 C77.8979293,21.8389717 76.9377121,23.1789276 75.5313261,23.1789276 C74.7049354,23.1789276 74.2138356,22.7098102 74.2138356,21.9955052 C74.2138356,21.1024428 74.8836928,20.2316044 77.8979293,20.2316044 L77.8979293,20.4997405 Z M80.8227872,25.1435683 C80.7783394,24.228282 80.7558739,23.1789276 80.7558739,22.2856237 L80.7558739,17.6637782 C80.7558739,15.2524856 79.7512089,13.8011687 76.1787178,13.8011687 C74.7496247,13.8011687 73.3207732,14.0915287 72.2045056,14.4932497 L72.4499347,16.88256 C73.387928,16.3465293 74.7274008,16.0117215 75.7320658,16.0117215 C77.3396748,16.0117215 77.8979293,16.6146654 77.8979293,17.7756224 L77.8979293,18.3783248 C74.1244569,18.3783248 71.4899591,19.7851939 71.4899591,22.4421572 C71.4899591,24.228282 72.6509161,25.3672566 74.6604876,25.3672566 C76.3127859,25.3672566 77.6747241,24.4964181 78.2105133,23.2455993 L78.2329787,23.2683064 C78.1436,23.8485433 78.1213761,24.4964181 78.1213761,25.1435683 L80.8227872,25.1435683 Z M66.64515,20.4997405 C66.64515,21.8389717 65.6849328,23.1789276 64.2783052,23.1789276 C63.452156,23.1789276 62.9610563,22.7098102 62.9610563,21.9955052 C62.9610563,21.1024428 63.6306719,20.2316044 66.64515,20.2316044 L66.64515,20.4997405 Z M69.5700078,25.1435683 C69.5253185,24.228282 69.5030946,23.1789276 69.5030946,22.2856237 L69.5030946,17.6637782 C69.5030946,15.2524856 68.498188,13.8011687 64.9256969,13.8011687 C63.4966038,13.8011687 62.0677523,14.0915287 60.9514847,14.4932497 L61.1971554,16.88256 C62.1346656,16.3465293 63.4746215,16.0117215 64.4792865,16.0117215 C66.0866539,16.0117215 66.64515,16.6146654 66.64515,17.7756224 L66.64515,18.3783248 C62.8716776,18.3783248 60.2369382,19.7851939 60.2369382,22.4421572 C60.2369382,24.228282 61.3976536,25.3672566 63.4074667,25.3672566 C65.0595234,25.3672566 66.4217032,24.4964181 66.9574923,23.2455993 L66.9799578,23.2683064 C66.8905791,23.8485433 66.8681136,24.4964181 66.8681136,25.1435683 L69.5700078,25.1435683 Z M58.6964841,25.1435683 L56.3518632,10.0723856 L52.9805949,10.0723856 L50.3903033,17.8647595 C50.0108062,18.9812687 49.7651355,19.8294002 49.5419303,20.9905987 L49.4969994,20.9905987 C49.2962596,19.9185373 49.0283651,18.8916484 48.6710918,17.8203117 L46.147955,10.0723856 L42.7542213,10.0723856 L40.4320659,25.1435683 L43.3793892,25.1435683 L44.2277622,18.1995673 C44.4062781,16.88256 44.5628116,15.6991376 44.6521903,14.3594232 L44.6968796,14.3594232 C44.8751539,15.564828 45.2548926,16.9272494 45.6568553,18.1551196 L47.9565453,25.1435683 L50.8369553,25.1435683 L53.226024,17.5746411 C53.6055212,16.3912187 53.8511919,15.3193989 54.0521732,14.3594232 L54.0968625,14.3594232 C54.2084651,15.4087776 54.3422916,16.5252867 54.5657384,17.9541382 L55.6375582,25.1435683 L58.6964841,25.1435683 Z"/>
    <g transform="translate(.25 .535)">
      <path fill="url(#maastricht-umc-logo-a)" d="M0.562743372,14.9620078 C1.36180978,19.0734961 2.52804806,22.430707 7.22031759,24.7321758 L7.22031759,24.7321758 C7.22031759,24.7321758 -7.30344491e-05,3.33998437 6.54971212,0.153808594 L6.54971212,0.153808594 C6.54971212,0.153808594 -2.27619413,0.363234375 0.562743372,14.9620078"/>
      <path fill="url(#maastricht-umc-logo-b)" d="M8.11954415,-6.99440506e-15 C7.28208712,0.002953125 6.06481851,0.116570837 5.1851242,0.43115602 C5.91159295,0.221238051 13.5545246,-1.44875391 10.4163371,17.2083516 L14.9321574,15.928418 C15.2060598,13.8934688 17.4388684,7.31390625 14.9232981,2.93245312 C13.6613293,0.735082031 10.5408606,0.00812109375 8.19829415,-6.99440506e-15 L8.11954415,-6.99440506e-15 Z"/>
      <path fill="url(#maastricht-umc-logo-c)" d="M10.4163371,17.2083516 L14.9321574,15.928418 C20.3841184,0.910054687 28.2165442,2.58521484 28.2165442,2.58521484 L28.2165442,2.58521484 L26.4579582,1.4529375 C25.8656106,1.31758594 25.2870442,1.25384766 24.7202902,1.25384766 L24.7202902,1.25384766 C16.5672043,1.25532422 11.1236106,14.4604687 10.4163371,17.2083516"/>
      <path fill="url(#maastricht-umc-logo-d)" d="M24.685591,1.25409375 C25.717216,1.28903906 28.6887981,1.91337891 27.3190402,8.13315234 L27.3190402,8.13315234 C26.5529504,11.6134102 24.8330012,15.2108086 22.5792746,19.2196758 L22.5792746,19.2196758 C19.1354387,25.344457 18.054841,28.8328359 17.5131887,35.3319258 L17.5131887,35.3319258 L22.3513918,35.8504453 C22.5615559,30.1464844 24.1414777,25.8942305 26.7170949,20.6937773 L26.7170949,20.6937773 C29.384259,15.3099844 30.5062004,12.2923828 30.9636887,9.69830859 L30.9636887,9.69830859 C31.4101027,7.16428125 30.5492668,1.25360156 24.7704934,1.25360156 L24.7704934,1.25360156 C24.7424387,1.25360156 24.7138918,1.25360156 24.685591,1.25409375"/>
      <path fill="url(#maastricht-umc-logo-e)" d="M2.91269259,21.2526562 C2.91269259,21.2526562 9.11523947,33.2450508 20.244091,29.2024688 L20.244091,29.2024688 C26.7894465,26.8256953 30.8598371,23.3983477 30.8598371,23.3983477 L30.8598371,23.3983477 L31.4073957,18.7951641 C31.4073957,18.7951641 13.222052,33.5206758 2.91269259,21.2526562"/>
    </g>
  </g>
</svg>
