<svg id="NKI-Logo" class="svg-logo" xmlns="http://www.w3.org/2000/svg" width="96" height="50" viewBox="0 0 125.3 65.3" enable-background="new 0 0 125.3 65.3" xml:space="preserve">
    <g id="AVL">
        <path class="cls-1" d="M40.4,61.1L40.4,61.1l-0.9,2.6h1.8L40.4,61.1z M39,65.1c0,0.1-0.1,0.2-0.3,0.2c-0.2,0-0.3-0.1-0.3-0.2
		c0-0.1,0.1-0.2,0.1-0.3l1.5-3.9c0.1-0.2,0.2-0.4,0.4-0.4c0.2,0,0.3,0.2,0.4,0.4l1.5,3.9c0,0.1,0.1,0.2,0.1,0.3
		c0,0.2-0.1,0.2-0.3,0.2c-0.2,0-0.2-0.1-0.3-0.2l-0.3-0.9h-2.2L39,65.1z"></path>
        <path class="cls-1" d="M43.8,65c0,0.2-0.1,0.3-0.3,0.3c-0.2,0-0.3-0.1-0.3-0.3v-4.2c0-0.2,0.1-0.3,0.3-0.3c0.2,0,0.3,0.1,0.4,0.3
		l2.4,3.5h0v-3.5c0-0.2,0.1-0.3,0.3-0.3c0.2,0,0.3,0.1,0.3,0.3v4.2c0,0.2-0.1,0.3-0.3,0.3c-0.2,0-0.3-0.1-0.4-0.3l-2.4-3.5h0V65z"></path>
        <path class="cls-1" d="M48.9,61H48c-0.2,0-0.3-0.1-0.3-0.3c0-0.2,0.1-0.3,0.3-0.3h2.4c0.2,0,0.3,0.1,0.3,0.3
		c0,0.2-0.1,0.3-0.3,0.3h-0.9V65c0,0.2-0.1,0.3-0.3,0.3s-0.3-0.1-0.3-0.3V61z"></path>
        <path class="cls-1" d="M53.1,60.4c-1.4,0-2.1,1.2-2.1,2.4c0,1.2,0.7,2.4,2.1,2.4s2.1-1.2,2.1-2.4C55.2,61.6,54.4,60.4,53.1,60.4z
		 M53.1,64.8c-1.1,0-1.5-1-1.5-1.9c0-0.9,0.4-1.9,1.5-1.9s1.5,1,1.5,1.9C54.5,63.8,54.1,64.8,53.1,64.8z"></path>
        <path class="cls-1" d="M56.8,65c0,0.2-0.1,0.3-0.3,0.3c-0.2,0-0.3-0.1-0.3-0.3v-4.2c0-0.2,0.1-0.3,0.3-0.3c0.2,0,0.3,0.1,0.4,0.3
		l2.4,3.5h0v-3.5c0-0.2,0.1-0.3,0.3-0.3c0.2,0,0.3,0.1,0.3,0.3v4.2c0,0.2-0.1,0.3-0.3,0.3c-0.2,0-0.3-0.1-0.4-0.3l-2.4-3.5h0V65z"></path>
        <path class="cls-1" d="M61.7,65c0,0.2-0.1,0.3-0.3,0.3c-0.2,0-0.3-0.1-0.3-0.3v-4.2c0-0.2,0.1-0.3,0.3-0.3c0.2,0,0.3,0.1,0.3,0.3
		V65z"></path>
        <path class="cls-1" d="M67.6,60.8c0.1-0.2,0.1-0.4,0.4-0.4c0.2,0,0.3,0.1,0.3,0.2c0,0.1,0,0.1,0,0.2L66.8,65
		c-0.1,0.2-0.1,0.3-0.3,0.3c-0.2,0-0.3-0.1-0.3-0.3l-1.5-4.1c0-0.1,0-0.1,0-0.2c0-0.1,0.1-0.2,0.3-0.2c0.2,0,0.3,0.2,0.4,0.4
		l1.2,3.5h0L67.6,60.8z"></path>
        <path class="cls-1" d="M70.4,61.1L70.4,61.1l-0.9,2.6h1.8L70.4,61.1z M69,65.1c0,0.1-0.1,0.2-0.3,0.2c-0.2,0-0.3-0.1-0.3-0.2
		c0-0.1,0.1-0.2,0.1-0.3l1.5-3.9c0.1-0.2,0.2-0.4,0.4-0.4s0.3,0.2,0.4,0.4l1.5,3.9c0,0.1,0.1,0.2,0.1,0.3c0,0.2-0.1,0.2-0.3,0.2
		c-0.2,0-0.2-0.1-0.3-0.2l-0.3-0.9h-2.2L69,65.1z"></path>
        <path class="cls-1" d="M73.8,65c0,0.2-0.1,0.3-0.3,0.3c-0.2,0-0.3-0.1-0.3-0.3v-4.2c0-0.2,0.1-0.3,0.3-0.3c0.2,0,0.3,0.1,0.4,0.3
		l2.4,3.5h0v-3.5c0-0.2,0.1-0.3,0.3-0.3c0.2,0,0.3,0.1,0.3,0.3v4.2c0,0.2-0.1,0.3-0.3,0.3c-0.2,0-0.3-0.1-0.4-0.3l-2.4-3.5h0V65z"></path>
        <path class="cls-1" d="M80.7,64.7H82c0.2,0,0.3,0.1,0.3,0.3c0,0.2-0.1,0.3-0.3,0.3h-1.5c-0.2,0-0.3-0.1-0.3-0.3v-4.2
		c0-0.2,0.1-0.3,0.3-0.3c0.2,0,0.3,0.1,0.3,0.3V64.7z"></path>
        <path class="cls-1" d="M83.7,64.7h1.4c0.2,0,0.3,0.1,0.3,0.3c0,0.2-0.1,0.3-0.3,0.3h-1.7c-0.2,0-0.3-0.1-0.3-0.3v-4.1
		c0-0.2,0.1-0.3,0.3-0.3h1.7c0.2,0,0.3,0.1,0.3,0.3c0,0.2-0.1,0.3-0.3,0.3h-1.4v1.6H85c0.2,0,0.3,0.1,0.3,0.3c0,0.2-0.1,0.3-0.3,0.3
		h-1.3V64.7z"></path>
        <path class="cls-1" d="M87,64.7h1.4c0.2,0,0.3,0.1,0.3,0.3c0,0.2-0.1,0.3-0.3,0.3h-1.7c-0.2,0-0.3-0.1-0.3-0.3v-4.1
		c0-0.2,0.1-0.3,0.3-0.3h1.7c0.2,0,0.3,0.1,0.3,0.3c0,0.2-0.1,0.3-0.3,0.3H87v1.6h1.3c0.2,0,0.3,0.1,0.3,0.3c0,0.2-0.1,0.3-0.3,0.3
		H87V64.7z"></path>
        <path class="cls-1" d="M93,60.4c-0.2,0-0.3,0.1-0.3,0.3v2.8c0,0.8-0.5,1.2-1.3,1.2s-1.3-0.4-1.3-1.2v-2.8c0-0.2-0.1-0.3-0.3-0.3
		c-0.2,0-0.3,0.1-0.3,0.3v2.6c0,1.6,1,1.9,1.8,1.9s1.8-0.3,1.8-1.9v-2.6C93.3,60.6,93.2,60.4,93,60.4z"></path>
        <path class="cls-1" d="M96.5,60.7c0.1-0.2,0.2-0.2,0.3-0.2c0.1,0,0.2,0.1,0.3,0.2l1.1,3.9h0l0.6-3.8c0-0.2,0.1-0.3,0.3-0.3
		c0.2,0,0.3,0.1,0.3,0.3c0,0.1,0,0.2,0,0.3l-0.7,3.9c0,0.2-0.1,0.4-0.4,0.4c-0.2,0-0.4-0.1-0.5-0.4l-1-3.5h0l-1,3.5
		c-0.1,0.3-0.2,0.4-0.5,0.4c-0.3,0-0.4-0.2-0.4-0.4L94.2,61c0-0.1,0-0.2,0-0.3c0-0.1,0.1-0.3,0.3-0.3c0.2,0,0.3,0.1,0.3,0.3l0.6,3.8
		h0L96.5,60.7z"></path>
        <path class="cls-1" d="M101,64.7h1.4c0.2,0,0.3,0.1,0.3,0.3c0,0.2-0.1,0.3-0.3,0.3h-1.7c-0.2,0-0.3-0.1-0.3-0.3v-4.1
		c0-0.2,0.1-0.3,0.3-0.3h1.7c0.2,0,0.3,0.1,0.3,0.3c0,0.2-0.1,0.3-0.3,0.3H101v1.6h1.3c0.2,0,0.3,0.1,0.3,0.3c0,0.2-0.1,0.3-0.3,0.3
		H101V64.7z"></path>
        <path class="cls-1" d="M104.3,65c0,0.2-0.1,0.3-0.3,0.3c-0.2,0-0.3-0.1-0.3-0.3v-4.2c0-0.2,0.1-0.3,0.3-0.3c0.2,0,0.3,0.1,0.4,0.3
		l2.4,3.5h0v-3.5c0-0.2,0.1-0.3,0.3-0.3c0.2,0,0.3,0.1,0.3,0.3v4.2c0,0.2-0.1,0.3-0.3,0.3c-0.2,0-0.3-0.1-0.4-0.3l-2.4-3.5h0V65z"></path>
        <path class="cls-1" d="M109.2,64.9c0,0.2-0.1,0.4-0.3,0.4c-0.2,0-0.3-0.1-0.3-0.4v-4.1c0-0.2,0.1-0.4,0.3-0.4
		c0.2,0,0.3,0.1,0.3,0.4v1.8h2.5v-1.8c0-0.2,0.1-0.4,0.3-0.4c0.2,0,0.3,0.1,0.3,0.4v4.1c0,0.2-0.1,0.4-0.3,0.4
		c-0.2,0-0.3-0.1-0.3-0.4v-1.8h-2.5V64.9z"></path>
        <path class="cls-1" d="M115.4,60.4c-1.4,0-2.1,1.2-2.1,2.4c0,1.2,0.7,2.4,2.1,2.4c1.4,0,2.1-1.2,2.1-2.4
		C117.5,61.6,116.8,60.4,115.4,60.4z M115.4,64.8c-1.1,0-1.5-1-1.5-1.9c0-0.9,0.4-1.9,1.5-1.9c1.1,0,1.5,1,1.5,1.9
		C116.9,63.8,116.5,64.8,115.4,64.8z"></path>
        <path class="cls-1" d="M119.1,64.7h1.4c0.2,0,0.3,0.1,0.3,0.3c0,0.2-0.1,0.3-0.3,0.3h-1.7c-0.2,0-0.3-0.1-0.3-0.3v-4.1
		c0-0.2,0.1-0.3,0.3-0.3h1.7c0.2,0,0.3,0.1,0.3,0.3c0,0.2-0.1,0.3-0.3,0.3h-1.4v1.6h1.3c0.2,0,0.3,0.1,0.3,0.3
		c0,0.2-0.1,0.3-0.3,0.3h-1.3V64.7z"></path>
        <path class="cls-1" d="M122.4,65c0,0.2-0.1,0.3-0.3,0.3c-0.2,0-0.3-0.1-0.3-0.3v-4.2c0-0.2,0.1-0.3,0.3-0.3c0.2,0,0.3,0.1,0.3,0.3
		v1.7l2-1.9c0.1-0.1,0.2-0.2,0.3-0.2c0.1,0,0.3,0.1,0.3,0.3s-0.1,0.2-0.1,0.3l-2,1.8l2.1,2.1c0.1,0.1,0.1,0.2,0.1,0.2
		c0,0.1-0.1,0.3-0.3,0.3c-0.1,0-0.2,0-0.3-0.1l-2.2-2.2V65z"></path>
    </g>
    <g>
        <path class="cls-1" d="M125.2,49.9c-0.1-0.2-3.4-4.8-6-5.8c-1.3-0.5-2,0.2-2.8,0.9c-1.1,1-2.6,2.3-6.9,2c-0.3,0-0.6,0.2-0.6,0.5
		c0,0.3,0.2,0.6,0.5,0.6c4.7,0.3,6.5-1.3,7.7-2.3c0.8-0.7,1.1-0.9,1.7-0.7c2.3,0.9,5.4,5.4,5.5,5.4c0.2,0.3,0.5,0.3,0.8,0.1
		C125.3,50.5,125.4,50.1,125.2,49.9z"></path>
        <path class="cls-1" d="M91.9,29.3c-0.8-0.1-2.1-0.4-3.5-0.2c-0.5,0-1,0-1,0c-0.3,0-0.6,0.2-0.6,0.5c0,0.3,0.2,0.6,0.5,0.6
		c0,0,0.5,0,1.1,0c0,0,0,0,0,0c0,0,0.1,0,0.1,0c0,0.8,0.4,1.2,0.8,1.5l0,0l0,0c1.3,1,3.5,1,4.8,0.5c0.8-0.3,1.4-0.8,1.5-1.4
		c0.1-0.3-0.1-0.6-0.4-0.7c-0.3-0.1-0.6,0.1-0.7,0.4c0,0.2-0.4,0.4-0.8,0.6c-1.1,0.4-2.9,0.4-3.8-0.3c-0.3-0.2-0.4-0.4-0.4-0.7
		c0.8,0,1.5,0.1,2,0.2c0.4,0.1,0.7,0.1,1,0.1c0.2,0,0.6-0.1,1.1-0.2c0.6-0.1,2.1-0.5,2.5-0.3c0.3,0.1,0.6,0,0.7-0.2
		c0.1-0.3,0-0.6-0.2-0.7c-0.6-0.3-1.8-0.1-3.2,0.2c-0.4,0.1-0.7,0.2-0.9,0.2C92.5,29.4,92.3,29.4,91.9,29.3z"></path>
        <path class="cls-1" d="M91.9,27.7c-1.8-0.5-2.6-0.3-2.7-0.3c-0.3,0.1-0.5,0.3-0.4,0.6c0.1,0.3,0.3,0.5,0.6,0.4
		c0,0,0.7-0.1,2.2,0.3c0.3,0.1,0.6-0.1,0.7-0.4C92.4,28.1,92.2,27.8,91.9,27.7z"></path>
        <path class="cls-1" d="M93.8,28.6c0,0,0.9-0.3,1.8-0.3c0.3,0,0.6-0.2,0.6-0.5c0-0.3-0.2-0.6-0.5-0.6c-1.2,0-2.2,0.3-2.2,0.3
		c-0.3,0.1-0.4,0.4-0.3,0.7C93.2,28.6,93.5,28.7,93.8,28.6z"></path>
        <path class="cls-1" d="M101.4,27.7c1.5-3.8-0.2-7.5-0.3-7.7c-0.1-0.3-0.5-0.4-0.7-0.3c-0.3,0.1-0.4,0.5-0.3,0.7
		c0,0,1.6,3.5,0.3,6.8c-1.8,4.5-3.2,7.2-4.3,8.1c-1.3,1.1-5.9,2-10,0.1l-0.1,0c-0.1,0-0.2-0.1-0.4-0.2c-0.3-0.2-0.8-0.4-1.4-0.6
		c-0.3-0.1-0.6,0.1-0.7,0.4c-0.1,0.3,0.1,0.6,0.4,0.7c0.5,0.1,0.8,0.3,1.1,0.5c0.2,0.1,0.3,0.2,0.5,0.2c4.8,2.3,9.7,1,11.1-0.2
		C98.1,35.2,99.5,32.5,101.4,27.7z"></path>
        <path class="cls-1" d="M97.6,19.9c0.5,0,0.9-0.4,0.9-1c0-0.2-0.1-0.4-0.2-0.6c0.7,0.1,1.4,0.4,1.4,0.4c0.3,0.1,0.6,0,0.7-0.3
		c0.1-0.3,0-0.6-0.3-0.7c-0.1,0-2-1-3.7-0.4c-0.7,0.3-1.3,0.8-1.6,1.6c-0.1,0.3,0,0.6,0.3,0.7c0.3,0.1,0.6,0,0.7-0.3
		c0.2-0.4,0.5-0.7,0.8-0.9c-0.1,0.1-0.1,0.3-0.1,0.4C96.7,19.5,97.1,19.9,97.6,19.9z"></path>
        <path class="cls-1" d="M114.6,44.5c0.6-0.4,0.9-1,1-1.7c0-0.2,0-0.5,0-0.7c0-1.5-0.8-1.9-1.3-2.2c-0.3-0.2-0.4-0.3-0.4-0.5
		c0-0.1,0.1-0.3,0.2-0.6c0.1-0.3,0.2-0.7,0.2-1c0-0.4-0.1-0.8-0.3-1.1c-0.5-1.1-1.6-1.8-2.3-2.1c0.5-0.8,1.3-2.3,1.3-4
		c0-0.2,0-0.4,0-0.6c-0.3-2.4-1.4-3.5-2.3-4.3c-0.7-0.6-1-1-1-1.6c0,0,0,0,0-0.1c0-0.4,0.1-0.9,0.1-1.4c0.1-0.8,0.2-1.6,0.2-2.5
		c0-1.7-0.4-3.5-1.9-4.5c0.4-0.9,0.6-1.8,0.6-2.5c0-0.5-0.1-1-0.3-1.4c-0.4-0.9-1.2-1.5-2.4-1.7c-0.2-0.6-0.3-1.1-0.3-1.6
		c0-0.3-0.1-0.7-0.1-1.1c-0.2-0.8-0.8-1.6-1.7-2c-0.5-0.3-1.1-0.3-1.6-0.3c-0.3-2.3-1.1-2.6-2.2-2.8c-0.6-0.1-1.3-0.2-2.1-1
		c-0.7-0.7-1.5-1.1-2.2-1c-0.5,0.1-1,0.4-1.2,0.6C94.2,0.4,93.5,0,92.8,0c-0.7,0-1.4,0.3-2,1c-0.2,0.2-0.2,0.6,0.1,0.8
		C91.1,2,91.4,2,91.6,1.7c0.4-0.4,0.7-0.6,1.1-0.6c0.8,0,1.5,0.8,1.5,0.8c0.1,0.1,0.3,0.2,0.5,0.2c0.2,0,0.3-0.1,0.4-0.3
		c0,0,0.3-0.6,0.9-0.6c0.4,0,0.8,0.2,1.3,0.6c1,1,2,1.2,2.7,1.3c0.5,0.1,0.7,0.1,0.9,0.3c0.3,0.3,0.4,1,0.5,2.1
		c0,0.2,0.1,0.3,0.3,0.4c0.2,0.1,0.4,0.1,0.5,0c0.4-0.2,0.9-0.2,1.3,0.1c0.6,0.3,1,0.7,1.1,1.2c0.1,0.3,0.1,0.6,0.1,0.9
		c0.1,0.7,0.1,1.4,0.6,2.2c0.1,0.1,0.2,0.3,0.4,0.3c0.6,0.1,1.5,0.4,1.9,1.2c0.4,0.8,0.2,2-0.6,3.4c-0.1,0.1-0.1,0.3,0,0.4
		c0,0.1,0.2,0.3,0.3,0.3c2.1,1,1.8,3.8,1.6,6.2c-0.1,0.5-0.1,1.1-0.1,1.5c0,1.2,0.7,1.9,1.3,2.5c0.8,0.7,1.7,1.6,1.9,3.6
		c0.3,2.2-1.4,4.4-1.5,4.4c-0.1,0.1-0.1,0.3-0.1,0.5c0,0.2,0.2,0.3,0.3,0.4c0,0,1.8,0.7,2.3,1.8c0.2,0.4,0.2,0.8,0,1.3
		c-0.6,1.5,0.1,2.1,0.8,2.5c0.5,0.3,0.9,0.5,0.7,1.8c-0.1,0.4-0.3,0.7-0.6,1c-1.5,1.2-5.4,0.9-6.8,0.7c-0.2,0-0.4,0-0.5,0.2
		c-0.1,0.1-0.2,0.3-0.1,0.5c0.1,0.6,0.1,1-0.3,1.3c-0.6,0.6-1.8,0.7-2.5,0.6c-0.2,0-0.4,0-0.5,0.2c-0.1,0.1-0.2,0.3-0.1,0.5
		c0.2,0.9,0.1,1.5-0.5,1.8c-0.6,0.4-1.5,0.2-1.7,0c-0.1-0.1-0.2-0.4-0.3-0.6c-0.1-0.4-0.3-0.8-0.7-1c-0.3-0.2-0.7-0.1-1.2,0.1
		c-0.8,0.3-1.2,0.2-1.3,0.2c-0.2-0.1-0.3-0.5-0.3-0.8c0-0.2-0.2-0.4-0.4-0.5c-0.1,0-1.1-0.3-1.2-1.9c-0.1-1.6,1.2-3,1.7-3.7l0.3-0.3
		l0.1-0.1c0.4-0.5,1.5-1.9,0.5-3.5c-0.2-0.3-0.5-0.3-0.8-0.2c-0.2,0.1-0.3,0.3-0.3,0.5c0,0.1,0,0.2,0.1,0.3c0.2,0.3,0.3,0.6,0.3,0.8
		c0,0.5-0.3,1-0.6,1.4l-0.1,0.1l-0.2,0.2c-0.6,0.7-2,2.3-2,4.2c0,0.1,0,0.2,0,0.3c0.2,1.8,1.1,2.5,1.7,2.7c0.1,0.6,0.4,1,0.8,1.2
		c0.5,0.3,1.3,0.3,2.3-0.1c0.2-0.1,0.3-0.1,0.3-0.1c0.1,0.1,0.1,0.3,0.2,0.4c0.1,0.3,0.2,0.8,0.6,1.1c0.6,0.6,2,0.7,3,0.2
		c0.5-0.3,1.1-0.8,1.1-2c0-0.1,0-0.1,0-0.2c0.9,0,2-0.2,2.8-0.9c0.3-0.3,0.6-0.8,0.6-1.6C109.2,45.6,112.9,45.8,114.6,44.5z"></path>
        <path class="cls-1" d="M86.7,17.2C85,17.1,83.5,17.9,83,19c-0.1,0.3,0,0.6,0.3,0.7c0.3,0.1,0.6,0,0.7-0.3c0.2-0.4,0.6-0.7,1-0.9
		c0,0.1,0,0.2,0,0.3c0,0.6,0.4,1.1,1,1.1c0.5,0,1-0.5,1-1.1c0-0.2,0-0.4-0.1-0.5c1,0.1,1.7,0.6,1.9,1.3c0.1,0.3,0.4,0.4,0.7,0.3
		c0.3-0.1,0.4-0.4,0.3-0.7c0-0.1-0.1-0.2-0.1-0.3c0.7-1.1,0.5-2.4-0.4-3.4c-1.4-1.5-3.9-0.9-5.7-0.4c-0.3,0.1-0.5,0.4-0.4,0.7
		c0.1,0.3,0.4,0.5,0.7,0.4c1.6-0.4,3.7-0.9,4.7,0.1c0.5,0.5,0.6,1.1,0.4,1.7C88.3,17.5,87.5,17.3,86.7,17.2z"></path>
        <path class="cls-1" d="M98.6,49.9c-0.3,0.1-0.5,0.4-0.4,0.7c0.5,1.8,0.4,2.6-0.2,2.9c-1.2,0.6-4.8,0.9-9,0.8
		c-4.3-0.1-6.9-0.5-7.5-0.8c1.5-4.2,2.6-8.8,3.2-13.6c0,0,0,0,0,0c0,0,0.1-0.6,0.1-1.2c0.8,0.3,2.2,0.8,3.4,1
		c0.1,0.3,0.1,0.8,0.1,1.3c0,1-0.2,2.4-0.3,3.8c-0.2,1.9-0.5,4.1-0.5,6.4c0,0.5,0,1,0,1.4c0,0.3,0.3,0.5,0.6,0.5
		c0.3,0,0.5-0.3,0.5-0.6c-0.1-2.7,0.2-5.3,0.4-7.6c0.3-2.5,0.5-4.6,0.1-5.8c-0.1-0.2-0.2-0.3-0.4-0.4c-1.7-0.3-4.2-1.2-4.2-1.3
		c-0.2-0.1-0.3,0-0.5,0c-0.1,0.1-0.2,0.2-0.3,0.4c0,0-0.2,1.9-0.2,1.9c-0.7,4.8-1.8,9.4-3.3,13.6c0,0.1,0,0.2,0,0.3
		c0,0.2,0.1,0.4,0.3,0.6c1.1,1,6.7,1.2,8.4,1.2c1.7,0,7.4,0.1,9.5-0.9c1.7-0.8,1.1-2.9,0.8-4.1C99.2,50,98.9,49.9,98.6,49.9z"></path>
        <path class="cls-1" d="M96.2,38.5c-0.1-0.3-0.4-0.4-0.7-0.3c-1.1,0.5-2.8,0.7-4.7,0.7c-0.3,0-0.5,0.2-0.5,0.6
		c0,0.3,0.2,0.6,0.5,0.6c2.2,0,3.9-0.3,5.2-0.8C96.2,39.1,96.3,38.8,96.2,38.5z"></path>
        <path class="cls-1" d="M95.3,15.1c-0.9,0.5-1.6,1.3-1.8,2.6c0,0,0,0,0,0.1c-0.2,1.7,0.5,3.3,1.1,4.8c0.5,1.1,0.9,2.2,0.7,2.7
		c-0.3,0.6-0.7,0.5-1.6,0.4c-0.7-0.1-1.6-0.3-2.5,0.2c-0.3,0.1-0.6,0.2-0.9,0c-0.2-0.1-0.3-0.3-0.3-0.4c0.1-0.1,0.2-0.3,0.2-0.4
		c0-0.3-0.2-0.6-0.6-0.6c-0.2,0-0.3,0.1-0.4,0.2c-0.1,0.1-0.3,0.3-0.4,0.7c0,0.3,0.2,1,0.7,1.4c0.4,0.3,1,0.5,2,0.1c0,0,0,0,0,0
		c0.6-0.3,1.2-0.2,1.8-0.1c0.9,0.2,2,0.4,2.7-0.9c0.2-0.3,0.2-0.6,0.2-0.9c0-0.8-0.4-1.7-0.8-2.8c-0.5-1.2-1.1-2.6-1.1-3.8
		c0-0.1,0-0.3,0-0.4c0.2-0.9,0.6-1.5,1.2-1.8c1.5-0.7,3.9,0.4,3.9,0.4c0.2,0.1,0.4,0.1,0.6-0.1c0.2-0.1,0.2-0.4,0.1-0.6
		c-0.9-2.4-0.9-4.3-0.9-4.3c0-0.3-0.3-0.5-0.6-0.5c-0.3,0-0.5,0.3-0.5,0.5v0c0,0.1,0.1,1.5,0.6,3.5C98.1,14.7,96.6,14.5,95.3,15.1z"></path>
        <path class="cls-1" d="M82.8,11.9c1.5,0.3,2.9-0.9,3.5-1.7c0.5,0.5,1.5,1.3,2.5,1.3c1.1,0,2-0.7,2.5-1.2c0.5,0.4,1.5,1.1,2.7,1.1
		c0.9,0,1.7-0.4,2.4-1.3c0.3,0.3,0.7,0.6,1.1,0.8c0.3,0.1,0.6,0,0.7-0.2c0.1-0.3,0-0.6-0.2-0.7c-0.6-0.3-0.9-0.6-1.1-1
		c-0.1-0.2-0.3-0.3-0.5-0.3c-0.2,0-0.4,0.1-0.5,0.3c-0.6,1-1.2,1.4-1.9,1.4c-1.2,0-2.3-1.2-2.3-1.2C91.6,9,91.5,9,91.3,9
		c-0.2,0-0.3,0.1-0.4,0.2c-0.3,0.3-1.1,1.2-2,1.2c-0.9,0-1.9-1-2.2-1.4c-0.1-0.1-0.3-0.2-0.5-0.2c-0.2,0-0.3,0.1-0.4,0.2
		c-0.3,0.5-1.4,1.8-2.5,1.8c-0.7-3.1-1.6-6.1-2.7-8.8c0.1,0,0.2,0,0.3-0.1c0.5-0.1,1.6,0.2,2.1,1c0.1,0.2,0.3,0.3,0.5,0.2
		c0.2,0,0.4-0.2,0.4-0.4c0.2-0.6,1.6-1.3,3-1.2c1.3,0,2.3,1,2.9,2c0.1,0.3,0.5,0.4,0.7,0.2C91,3.6,91.1,3.3,90.9,3
		c-0.7-1.2-2-2.5-3.8-2.6c-1.3,0-2.9,0.4-3.7,1.3c-0.9-0.8-2-1-2.7-0.9c-0.4,0.1-0.7,0.1-1,0.2c-0.1,0-0.1,0-0.2,0.1l0,0
		c-0.2,0.1-0.3,0.3-0.3,0.5c0,0.1,0,0.2,0,0.2c0,0,0,0,0,0.1c1.2,3,2.2,6.2,2.9,9.5C82.5,11.7,82.6,11.8,82.8,11.9z"></path>
        <path class="cls-1" d="M94.6,52.6c0.1,0.3,0.4,0.4,0.7,0.3c0.3-0.1,0.4-0.4,0.3-0.7c-0.3-0.7-0.3-2.4-0.3-3l0-0.3
		c0-0.3-0.3-0.5-0.6-0.5c-0.3,0-0.5,0.3-0.5,0.6l0,0.2C94.2,50.5,94.2,51.9,94.6,52.6z"></path>
    </g>
    <g id="NKI">
        <path class="cls-1" d="M6.3,22.9c-0.4,0-0.6,0.2-0.6,0.6v6.2l-4.3-6.2C1,23,0.9,22.9,0.5,22.9c-0.4,0-0.5,0.2-0.5,0.7v7.7
		c0,0.4,0.2,0.6,0.6,0.6s0.6-0.2,0.6-0.6V25l4.3,6.2c0.3,0.4,0.5,0.6,0.8,0.6c0.4,0,0.5-0.2,0.5-0.7v-7.7
		C6.9,23.1,6.6,22.9,6.3,22.9z"></path>
        <path class="cls-1" d="M12.4,30.6H9.8v-2.7h2.3c0.4,0,0.6-0.2,0.6-0.6s-0.2-0.6-0.6-0.6H9.8V24h2.5c0.4,0,0.6-0.2,0.6-0.6
		c0-0.3-0.2-0.6-0.6-0.6H9.3c-0.4,0-0.6,0.2-0.6,0.6v7.5c0,0.4,0.2,0.6,0.6,0.6h3.1c0.4,0,0.6-0.2,0.6-0.6
		C12.9,30.9,12.7,30.6,12.4,30.6z"></path>
        <path class="cls-1" d="M18.7,22.9h-4.3c-0.4,0-0.6,0.2-0.6,0.6c0,0.3,0.2,0.6,0.6,0.6H16v7.2c0,0.4,0.2,0.6,0.6,0.6
		c0.4,0,0.6-0.2,0.6-0.6V24h1.6c0.4,0,0.6-0.2,0.6-0.6C19.3,23.1,19.1,22.9,18.7,22.9z"></path>
        <path class="cls-1" d="M26.5,22.9c-0.4,0-0.6,0.3-0.6,0.7v3.3h-4.5v-3.3c0-0.4-0.2-0.7-0.6-0.7c-0.4,0-0.6,0.3-0.6,0.7v7.6
		c0,0.4,0.2,0.7,0.6,0.7c0.4,0,0.6-0.3,0.6-0.7v-3.3H26v3.3c0,0.4,0.2,0.7,0.6,0.7c0.4,0,0.6-0.3,0.6-0.7v-7.6
		C27.1,23.1,26.9,22.9,26.5,22.9z"></path>
        <path class="cls-1" d="M32.6,30.6h-2.5v-2.7h2.3c0.4,0,0.6-0.2,0.6-0.6s-0.2-0.6-0.6-0.6h-2.3V24h2.5c0.4,0,0.6-0.2,0.6-0.6
		c0-0.3-0.2-0.6-0.6-0.6h-3.1c-0.4,0-0.6,0.2-0.6,0.6v7.5c0,0.4,0.2,0.6,0.6,0.6h3.1c0.4,0,0.6-0.2,0.6-0.6
		C33.2,30.9,33,30.6,32.6,30.6z"></path>
        <path class="cls-1" d="M39.8,30.8l-2.7-3l0.4,0c0.9,0,2.4-0.4,2.4-2.5c0-1.5-1.4-2.4-2.7-2.4h-2c-0.4,0-0.6,0.2-0.6,0.6v7.6
		c0,0.4,0.2,0.6,0.6,0.6c0.4,0,0.6-0.2,0.6-0.6V28l3.2,3.5c0.1,0.1,0.3,0.3,0.5,0.3c0.3,0,0.5-0.2,0.5-0.5
		C40,31.2,39.9,31,39.8,30.8z M35.6,27.1v-3.2h1.5c1,0,1.7,0.6,1.7,1.5c0,1.1-0.5,1.7-1.7,1.7H35.6z"></path>
        <path class="cls-1" d="M44.7,30.6h-2.2v-7.2c0-0.4-0.2-0.6-0.6-0.6c-0.4,0-0.6,0.2-0.6,0.6v7.6c0,0.4,0.2,0.6,0.6,0.6h2.8
		c0.4,0,0.6-0.2,0.6-0.6C45.2,30.9,45,30.6,44.7,30.6z"></path>
        <path class="cls-1" d="M53.2,30.8l-2.7-7.3c-0.2-0.5-0.4-0.7-0.8-0.7c-0.4,0-0.7,0.2-0.8,0.7l-2.7,7.2l0,0.1
		c0,0.1-0.1,0.3-0.1,0.5c0,0.3,0.2,0.5,0.6,0.5c0.3,0,0.5-0.1,0.6-0.4l0.5-1.5l4,0l0.6,1.6c0.1,0.3,0.3,0.4,0.6,0.4
		c0.3,0,0.6-0.2,0.6-0.5C53.3,31.2,53.3,31,53.2,30.8z M47.9,28.9l1.7-4.8h0.1l1.8,4.8H47.9z"></path>
        <path class="cls-1" d="M60.6,22.9c-0.4,0-0.6,0.2-0.6,0.6v6.2l-4.3-6.2c-0.3-0.4-0.5-0.6-0.8-0.6c-0.4,0-0.5,0.2-0.5,0.7v7.7
		c0,0.4,0.2,0.6,0.6,0.6c0.4,0,0.6-0.2,0.6-0.6V25l4.3,6.2c0.3,0.4,0.5,0.6,0.8,0.6c0.4,0,0.5-0.2,0.5-0.7v-7.7
		C61.2,23.1,61,22.9,60.6,22.9z"></path>
        <path class="cls-1" d="M65.8,22.9h-2.1c-0.4,0-0.6,0.2-0.6,0.6v7.5c0,0.4,0.2,0.6,0.6,0.6h2.3c2.3,0,3.8-1.8,3.8-4.5
		C69.7,25.3,68.7,22.9,65.8,22.9z M65.7,30.8h-1.6v-7h1.5c1.8,0,2.9,1.3,2.9,3.4C68.5,29.5,67.5,30.8,65.7,30.8z"></path>
        <path class="cls-1" d="M73.5,26.5c-0.9-0.3-1.7-0.6-1.7-1.4c0-0.7,0.5-1.2,1.3-1.2c0.6,0,0.9,0.2,1.2,0.4c0.2,0.1,0.3,0.2,0.5,0.2
		c0.3,0,0.5-0.2,0.5-0.5c0-0.6-1.2-1.1-2.2-1.1c-1.6,0-2.6,1.2-2.6,2.3c0,1.6,1.3,2,2.4,2.4c1,0.3,1.8,0.6,1.8,1.5
		c0,1-0.7,1.7-1.7,1.7c-0.7,0-1.1-0.3-1.5-0.5c-0.2-0.1-0.4-0.2-0.5-0.2c-0.3,0-0.5,0.2-0.5,0.6c0,0.7,1.3,1.1,2.5,1.1
		c2.1,0,3-1.5,3-2.8C76,27.4,74.7,26.9,73.5,26.5z"></path>
        <path class="cls-1" d="M39.3,41.8c-0.2,0-0.4,0.1-0.6,0.3c-0.4,0.2-0.9,0.5-1.7,0.5c-1.8,0-2.6-1.8-2.6-3.5c0-1.7,0.8-3.4,2.7-3.4
		c0.8,0,1.2,0.3,1.5,0.6c0.2,0.2,0.4,0.3,0.6,0.3c0.3,0,0.5-0.2,0.5-0.6c0-0.5-1-1.3-2.6-1.3c-2.7,0-3.9,2.3-3.9,4.5
		c0,2.2,1.2,4.5,3.9,4.5c1.6,0,2.8-0.7,2.8-1.3C39.7,42.1,39.5,41.8,39.3,41.8z"></path>
        <path class="cls-1" d="M47.7,42.7L45,35.4c-0.2-0.5-0.4-0.7-0.8-0.7s-0.7,0.2-0.8,0.7l-2.7,7.2l0,0.1c0,0.1-0.1,0.4-0.1,0.5
		c0,0.3,0.2,0.5,0.6,0.5c0.3,0,0.5-0.1,0.6-0.4l0.5-1.5l4,0l0.6,1.6c0.1,0.3,0.3,0.4,0.6,0.4c0.3,0,0.6-0.2,0.6-0.5
		C47.9,43,47.8,42.8,47.7,42.7z M42.4,40.8l1.7-4.8h0.1l1.8,4.8H42.4z"></path>
        <path class="cls-1" d="M55.2,34.7c-0.4,0-0.6,0.2-0.6,0.6v6.2l-4.3-6.2c-0.3-0.4-0.5-0.6-0.8-0.6c-0.4,0-0.5,0.2-0.5,0.7V43
		c0,0.4,0.2,0.6,0.6,0.6c0.4,0,0.6-0.2,0.6-0.6v-6.2l4.3,6.2c0.3,0.4,0.5,0.6,0.8,0.6c0.4,0,0.5-0.2,0.5-0.7v-7.7
		C55.7,34.9,55.5,34.7,55.2,34.7z"></path>
        <path class="cls-1" d="M63.3,41.8c-0.2,0-0.4,0.1-0.6,0.3c-0.4,0.2-0.9,0.5-1.7,0.5c-1.8,0-2.6-1.8-2.6-3.5c0-1.7,0.8-3.4,2.7-3.4
		c0.8,0,1.2,0.3,1.5,0.6c0.2,0.2,0.4,0.3,0.6,0.3c0.3,0,0.5-0.2,0.5-0.6c0-0.5-1-1.3-2.6-1.3c-2.7,0-3.9,2.3-3.9,4.5
		c0,2.2,1.2,4.5,3.9,4.5c1.6,0,2.8-0.7,2.8-1.3C63.8,42.1,63.6,41.8,63.3,41.8z"></path>
        <path class="cls-1" d="M68.7,42.5h-2.5v-2.7h2.3c0.4,0,0.6-0.2,0.6-0.6c0-0.3-0.2-0.6-0.6-0.6h-2.3v-2.7h2.5
		c0.4,0,0.6-0.2,0.6-0.6c0-0.3-0.2-0.6-0.6-0.6h-3.1c-0.4,0-0.6,0.2-0.6,0.6V43c0,0.4,0.2,0.6,0.6,0.6h3.1c0.4,0,0.6-0.2,0.6-0.6
		C69.3,42.7,69.1,42.5,68.7,42.5z"></path>
        <path class="cls-1" d="M75.8,42.7l-2.7-3l0.4,0c0.9,0,2.4-0.4,2.4-2.5c0-1.5-1.4-2.4-2.7-2.4h-2c-0.4,0-0.6,0.2-0.6,0.6V43
		c0,0.4,0.2,0.6,0.6,0.6c0.4,0,0.6-0.2,0.6-0.6v-3.2l3.2,3.5c0.1,0.1,0.3,0.3,0.5,0.3c0.3,0,0.5-0.2,0.5-0.5
		C76,43,76,42.8,75.8,42.7z M71.6,38.9v-3.2h1.5c1,0,1.7,0.7,1.7,1.5c0,1.1-0.5,1.7-1.7,1.7H71.6z"></path>
        <path class="cls-1" d="M25.8,46.6c-0.4,0-0.6,0.2-0.6,0.6v7.7c0,0.4,0.2,0.6,0.6,0.6c0.4,0,0.6-0.2,0.6-0.6v-7.7
		C26.4,46.8,26.1,46.6,25.8,46.6z"></path>
        <path class="cls-1" d="M34.4,46.6c-0.4,0-0.6,0.2-0.6,0.6v6.2l-4.3-6.2c-0.3-0.4-0.5-0.6-0.8-0.6c-0.4,0-0.5,0.2-0.5,0.7v7.7
		c0,0.4,0.2,0.6,0.6,0.6c0.4,0,0.6-0.2,0.6-0.6v-6.2l4.3,6.2c0.3,0.4,0.5,0.6,0.8,0.6c0.4,0,0.5-0.2,0.5-0.7v-7.7
		C35,46.8,34.8,46.6,34.4,46.6z"></path>
        <path class="cls-1" d="M39.3,50.2c-0.9-0.3-1.7-0.6-1.7-1.4c0-0.7,0.5-1.2,1.3-1.2c0.6,0,0.9,0.2,1.2,0.4c0.2,0.1,0.3,0.2,0.5,0.2
		c0.3,0,0.5-0.2,0.5-0.5c0-0.6-1.2-1.1-2.2-1.1c-1.6,0-2.6,1.2-2.6,2.3c0,1.6,1.2,2,2.4,2.4c1,0.3,1.8,0.6,1.8,1.5
		c0,1-0.7,1.7-1.7,1.7c-0.7,0-1.1-0.3-1.5-0.5c-0.2-0.1-0.4-0.2-0.5-0.2c-0.3,0-0.5,0.2-0.5,0.6c0,0.6,1.3,1.1,2.5,1.1
		c2.1,0,3-1.5,3-2.8C41.8,51.1,40.5,50.6,39.3,50.2z"></path>
        <path class="cls-1" d="M47.1,46.6h-4.3c-0.4,0-0.6,0.2-0.6,0.6c0,0.3,0.2,0.6,0.6,0.6h1.6v7.2c0,0.4,0.2,0.6,0.6,0.6
		s0.6-0.2,0.6-0.6v-7.2h1.6c0.4,0,0.6-0.2,0.6-0.6C47.7,46.8,47.5,46.6,47.1,46.6z"></path>
        <path class="cls-1" d="M49.3,46.6c-0.4,0-0.6,0.2-0.6,0.6v7.7c0,0.4,0.2,0.6,0.6,0.6c0.4,0,0.6-0.2,0.6-0.6v-7.7
		C49.9,46.8,49.6,46.6,49.3,46.6z"></path>
        <path class="cls-1" d="M55.7,46.6h-4.3c-0.4,0-0.6,0.2-0.6,0.6c0,0.3,0.2,0.6,0.6,0.6H53v7.2c0,0.4,0.2,0.6,0.6,0.6
		c0.4,0,0.6-0.2,0.6-0.6v-7.2h1.6c0.4,0,0.6-0.2,0.6-0.6C56.3,46.8,56.1,46.6,55.7,46.6z"></path>
        <path class="cls-1" d="M63.6,46.6c-0.4,0-0.6,0.2-0.6,0.6v5.2c0,1.3-0.9,2.1-2.2,2.1c-1.4,0-2.3-0.8-2.3-2.1v-5.2
		c0-0.4-0.2-0.6-0.6-0.6c-0.4,0-0.6,0.2-0.6,0.6V52c0,3,1.9,3.6,3.4,3.6s3.4-0.6,3.4-3.6v-4.8C64.2,46.8,63.9,46.6,63.6,46.6z"></path>
        <path class="cls-1" d="M70.1,46.6h-4.3c-0.4,0-0.6,0.2-0.6,0.6c0,0.3,0.2,0.6,0.6,0.6h1.6v7.2c0,0.4,0.2,0.6,0.6,0.6
		c0.4,0,0.6-0.2,0.6-0.6v-7.2h1.6c0.4,0,0.6-0.2,0.6-0.6C70.6,46.8,70.4,46.6,70.1,46.6z"></path>
        <path class="cls-1" d="M75.3,54.4h-2.5v-2.7h2.3c0.4,0,0.6-0.2,0.6-0.6c0-0.3-0.2-0.6-0.6-0.6h-2.3v-2.7h2.5
		c0.4,0,0.6-0.2,0.6-0.6c0-0.3-0.2-0.6-0.6-0.6h-3.1c-0.4,0-0.6,0.2-0.6,0.6v7.5c0,0.4,0.2,0.6,0.6,0.6h3.1c0.4,0,0.6-0.2,0.6-0.6
		C75.9,54.6,75.7,54.4,75.3,54.4z"></path>
    </g>
</svg>
