<svg xmlns="http://www.w3.org/2000/svg" width="7rem" height="1.5rem" fill="none" class="2xl:hidden" loading="eager"><circle cx="11.817" cy="11.426" r="10.898" fill="currentColor"></circle><path fill="currentColor" d="M48.864 3.136a6.47 6.47 0 0 1 2.834 2.502q1.055 1.659 1.055 3.678a6.72 6.72 0 0 1-1.447 4.221 6.7 6.7 0 0 1-3.648 2.442l5.336 7.447h-1.326l-5.156-7.236-.964.03H37.98v7.206h-1.115V2.441h7.99q1.326 0 2.26.181.965.15 1.749.513m-3.015 11.969q1.568 0 2.894-.784a5.9 5.9 0 0 0 2.11-2.11q.785-1.328.785-2.895 0-1.748-.935-3.165-.904-1.417-2.533-2.11-1.175-.483-3.316-.483H37.98v11.547zm21.231-1.719q-2.562-.512-4.19-1.115-1.598-.633-2.533-1.689-.904-1.085-.904-2.773 0-1.748.904-3.075.935-1.327 2.593-2.05 1.688-.724 3.89-.724 2.109 0 3.858.905 1.778.873 2.804 2.472 1.025 1.597 1.025 3.648h-1.115q0-1.779-.875-3.136a5.7 5.7 0 0 0-2.382-2.08q-1.507-.753-3.346-.754-1.627 0-3.045.513-1.417.512-2.321 1.568-.875 1.054-.875 2.653 0 1.447.845 2.32.843.846 2.2 1.297 1.357.452 3.799.965 2.472.512 3.829.995a5.1 5.1 0 0 1 2.321 1.537q.965 1.086.965 3.045 0 1.96-1.055 3.317-1.025 1.326-2.744 1.99-1.718.663-3.738.663-2.502 0-4.402-.935-1.898-.934-2.924-2.623-.995-1.718-.995-3.919h1.116q-.001 1.93.844 3.377.874 1.447 2.502 2.26 1.628.785 3.859.785 2.774 0 4.582-1.327 1.84-1.326 1.84-3.618 0-1.567-.784-2.412-.784-.843-1.99-1.205-1.176-.393-3.558-.875M88.734 2.442q2.29 0 4.22 1.146a8.5 8.5 0 0 1 3.106 3.105 8.1 8.1 0 0 1 1.145 4.221v4.04a8.3 8.3 0 0 1-1.145 4.25 8.6 8.6 0 0 1-3.106 3.076 8.1 8.1 0 0 1-4.22 1.145h-7.748V2.442zm7.356 8.472a7.1 7.1 0 0 0-.995-3.678 7.4 7.4 0 0 0-2.713-2.683 7.1 7.1 0 0 0-3.678-.995H82.1V22.31h6.603a7.1 7.1 0 0 0 3.678-.995 7.4 7.4 0 0 0 2.713-2.683 7.1 7.1 0 0 0 .995-3.678z"></path></svg>